SplineFontDB: 3.0
FontName: HadasimCLM-Bold
FullName: Hadasim CLM Bold
FamilyName: Hadasim CLM
Weight: Bold
Copyright: Inspired by Henri Friedlander Hadasa font.\n\nCopyright 2010 by Yoram Gnat (yoram.gnat@gmail.com). Distributed under the terms of GNU GPL version2 (http://www.gnu.org/licenses/gpl.html).\n\nLatin and parts of general punctuation marks based on modified forms from the LiberationSerif font, created by Digitized data `2007 Ascender Corporation. All rights reserved. \n\nAs a special exception, if you create a document which uses this font, and embed this font or unaltered portions of this font into the document, this font does not by itself cause the resulting document to be covered by the GNU General Public License. This exception does not however invalidate any other reasons why the document might be covered by the GNU General Public License. If you modify this font, you may extend this exception to your version of the font, but you are not obligated to do so. If you do not wish to do so, delete this exception statement from your version.
Version: 0.110
ItalicAngle: 0
UnderlinePosition: -1228
UnderlineWidth: 184
Ascent: 1638
Descent: 410
LayerCount: 2
Layer: 0 0 "Back"  1
Layer: 1 0 "Fore"  0
NeedsXUIDChange: 1
UniqueID: 4247518
FSType: 0
OS2Version: 0
OS2_WeightWidthSlopeOnly: 0
OS2_UseTypoMetrics: 0
CreationTime: 1235598109
ModificationTime: 1286636186
PfmFamily: 17
TTFWeight: 700
TTFWidth: 7
LineGap: 184
VLineGap: 0
OS2TypoAscent: 0
OS2TypoAOffset: 1
OS2TypoDescent: 0
OS2TypoDOffset: 1
OS2TypoLinegap: 184
OS2WinAscent: 0
OS2WinAOffset: 1
OS2WinDescent: 50
OS2WinDOffset: 1
HheadAscent: 0
HheadAOffset: 1
HheadDescent: 0
HheadDOffset: 1
OS2Vendor: 'PfEd'
Lookup: 4 1 0 "'ccmp' YodHiriq bug in Hebrew Script"  {"'ccmp' YodHiriq in Hebrew Script"  } ['ccmp' ('hebr' <'dflt' > ) ]

StartChar: exclam
Encoding: 33 33 1
Width: 418
Flags: W
HStem: -53 268<109.826 308.174>
VStem: 75 268<-18.3005 180.637> 144 131<324 535.854>
LayerCount: 2
Fore
SplineSet
343 81 m 0xc0
 343 13 290 -53 209 -53 c 0
 129 -53 75 13 75 81 c 0
 75 150 129 215 209 215 c 0
 289 215 343 150 343 81 c 0xc0
81 1255 m 1
 331 1255 l 1
 275 324 l 1
 144 324 l 1xa0
 81 1255 l 1
EndSplineSet
EndChar

StartChar: quotedbl
Encoding: 34 34 2
Width: 707
Flags: W
HStem: 760 495<113 187 398 472>
VStem: 75 557
LayerCount: 2
Fore
SplineSet
398 1255 m 1
 632 1255 l 1
 472 760 l 1
 360 760 l 1
 398 1255 l 1
113 1255 m 1
 347 1255 l 1
 187 760 l 1
 75 760 l 1
 113 1255 l 1
EndSplineSet
EndChar

StartChar: numbersign
Encoding: 35 35 3
Width: 1079
Flags: W
HStem: 295 157<124 237 429 595 785 965> 659 162<122 303 496 661 852 953>
LayerCount: 2
Fore
SplineSet
1002 452 m 1
 965 295 l 1
 754 295 l 1
 698 -25 l 1
 539 -25 l 1
 595 291 l 1
 398 291 l 1
 343 -25 l 1
 181 -25 l 1
 237 291 l 1
 79 291 l 1
 124 452 l 1
 267 452 l 1
 303 659 l 1
 75 659 l 1
 122 821 l 1
 335 821 l 1
 376 1075 l 1
 536 1075 l 1
 496 821 l 1
 694 821 l 1
 734 1074 l 1
 892 1074 l 1
 852 821 l 1
 1004 821 l 1
 953 659 l 1
 820 659 l 1
 785 452 l 1
 1002 452 l 1
429 452 m 1
 626 452 l 1
 661 659 l 1
 464 659 l 1
 429 452 l 1
EndSplineSet
EndChar

StartChar: dollar
Encoding: 36 36 4
Width: 917
Flags: W
HStem: 0 132<525 633.221> 933 166<281.978 347>
VStem: 75 93<301.889 346> 88 179<705.175 920.753> 347 178<-107 0 152 431 684 933 1099 1147> 662 180<163.725 378.878> 678 95<803 868.372>
LayerCount: 2
Fore
SplineSet
842 333 m 0xcc
 842 141 717 11 525 0 c 1
 525 -107 l 1
 347 -107 l 1
 347 0 l 1
 232 4 141 29 88 53 c 2xdc
 75 60 l 1
 75 346 l 1
 168 346 l 1xe8
 207 226 l 1
 241 184 292 158 347 152 c 1
 347 505 l 1
 320 519 l 1
 197 565 88 637 88 813 c 0
 88 976 183 1088 347 1099 c 1
 347 1147 l 1
 525 1147 l 1
 525 1099 l 1
 626 1096 711 1076 754 1066 c 2
 773 1061 l 1
 773 803 l 1
 678 803 l 1xda
 653 917 l 1
 627 939 574 955 525 960 c 1
 525 662 l 1
 593 642 l 1
 771 577 842 480 842 333 c 0xcc
525 431 m 1
 525 132 l 1
 623 148 662 173 662 265 c 0
 662 359 612 399 525 431 c 1
347 684 m 1
 347 933 l 1
 284 921 267 896 267 828 c 0
 267 744 286 712 347 684 c 1
EndSplineSet
EndChar

StartChar: percent
Encoding: 37 37 5
Width: 1448
Flags: W
HStem: -13 107<1012.77 1175.48> 459 106<268.967 433.377> 496 107<1011.4 1177.8> 943 106<268.094 435.105>
VStem: 75 169<584.091 923.463> 463 180<589.974 918.445> 805 181<116.668 475.135> 1205 168<117.662 473.122>
LayerCount: 2
Fore
SplineSet
412 -9 m 1x9f
 225 -9 l 1
 1028 1049 l 1
 1216 1049 l 1
 412 -9 l 1x9f
353 1049 m 0
 521 1049 643 966 643 756 c 0
 643 523 499 459 348 459 c 0xdf
 207 459 75 526 75 756 c 0
 75 990 216 1049 353 1049 c 0
348 565 m 0
 413 565 463 598 463 756 c 0
 463 907 417 943 348 943 c 0
 285 943 244 915 244 756 c 0
 244 595 285 565 348 565 c 0
1099 603 m 0xbf
 1283 603 1373 491 1373 297 c 0
 1373 54 1238 -13 1095 -13 c 0
 946 -13 805 56 805 297 c 0
 805 453 870 603 1099 603 c 0xbf
1095 94 m 0
 1158 94 1205 129 1205 297 c 0
 1205 464 1158 496 1095 496 c 0
 1030 496 986 466 986 297 c 0
 986 126 1030 94 1095 94 c 0
EndSplineSet
EndChar

StartChar: ampersand
Encoding: 38 38 6
Width: 1331
Flags: W
HStem: -25 116<346.579 680.414 1232.62 1256> 572 86<811 884.728 1138.02 1211> 972 111<414.629 619.228>
VStem: 75 200<158.976 442.571> 212 185<719.476 953.211> 637 185<721.406 953.804>
LayerCount: 2
Fore
SplineSet
822 844 m 0xec
 822 690 699 624 590 579 c 1
 858 335 l 1
 882 388 914 470 919 551 c 1
 811 572 l 1
 811 658 l 1
 1211 658 l 1
 1211 572 l 1
 1099 550 l 1
 1079 484 1033 350 963 239 c 1
 1116 99 l 1
 1256 78 l 1
 1256 -25 l 1
 956 -25 l 1
 835 100 l 1
 749 27 640 -25 480 -25 c 0
 128 -25 75 166 75 288 c 0xf4
 75 470 191 544 309 594 c 1
 261 647 212 727 212 834 c 0
 212 934 259 1083 523 1083 c 0
 777 1083 822 940 822 844 c 0xec
275 297 m 0
 275 152 365 91 501 91 c 0
 595 91 676 119 747 183 c 1
 397 503 l 1xec
 325 468 275 411 275 297 c 0
523 972 m 0
 445 972 397 946 397 850 c 0
 397 776 431 716 494 664 c 1
 584 699 637 735 637 850 c 0
 637 929 606 972 523 972 c 0
EndSplineSet
EndChar

StartChar: quotesingle
Encoding: 39 39 7
Width: 422
Flags: W
HStem: 760 495<113 187>
VStem: 75 272
LayerCount: 2
Fore
SplineSet
113 1255 m 1
 347 1255 l 1
 187 760 l 1
 75 760 l 1
 113 1255 l 1
EndSplineSet
EndChar

StartChar: parenleft
Encoding: 40 40 8
Width: 674
Flags: W
VStem: 75 224<78.8172 777.125>
LayerCount: 2
Fore
SplineSet
75 427 m 0
 75 915 255 1121 562 1283 c 2
 599 1302 l 1
 599 1172 l 1
 586 1164 l 2
 307 1004 299 663 299 451 c 0
 299 443 299 435 299 427 c 0
 299 33 368 -189 586 -313 c 2
 599 -320 l 1
 599 -451 l 1
 562 -432 l 2
 251 -268 75 -56 75 427 c 0
EndSplineSet
EndChar

StartChar: parenright
Encoding: 41 41 9
Width: 674
Flags: W
VStem: 375 224<70.8645 776.888>
LayerCount: 2
Fore
SplineSet
599 427 m 0
 599 -62 417 -270 112 -432 c 2
 75 -452 l 1
 75 -320 l 1
 88 -313 l 2
 306 -189 375 34 375 427 c 0
 375 677 366 1004 88 1164 c 2
 75 1172 l 1
 75 1303 l 1
 112 1283 l 2
 422 1118 599 911 599 427 c 0
EndSplineSet
EndChar

StartChar: asterisk
Encoding: 42 42 10
Width: 818
Flags: W
HStem: 416 658
VStem: 75 668
LayerCount: 2
Fore
SplineSet
75 810 m 1
 144 978 l 1
 354 836 l 1
 325 1074 l 1
 495 1074 l 1
 465 836 l 1
 676 978 l 1
 743 809 l 1
 549 744 l 1
 743 682 l 1
 676 514 l 1
 465 653 l 1
 495 416 l 1
 325 416 l 1
 354 654 l 1
 144 510 l 1
 75 679 l 1
 269 744 l 1
 75 810 l 1
EndSplineSet
EndChar

StartChar: plus
Encoding: 43 43 11
Width: 1046
Flags: W
HStem: 379 166<75 441 607 971>
VStem: 441 166<12 379 545 913>
LayerCount: 2
Fore
SplineSet
607 12 m 1
 441 12 l 1
 441 379 l 1
 75 379 l 1
 75 545 l 1
 441 545 l 1
 441 913 l 1
 607 913 l 1
 607 545 l 1
 971 545 l 1
 971 379 l 1
 607 379 l 1
 607 12 l 1
EndSplineSet
EndChar

StartChar: comma
Encoding: 44 44 12
Width: 475
Flags: W
HStem: -309 532
VStem: 234 166<-122.707 101.5>
LayerCount: 2
Fore
SplineSet
228 -40 m 1
 202 -12 112 1 112 98 c 0
 112 179 171 223 246 223 c 0
 336 223 400 151 400 52 c 0
 400 -159 248 -258 107 -300 c 2
 75 -309 l 1
 75 -188 l 1
 92 -182 l 2
 163 -159 234 -124 234 -56 c 1
 233 -48 232 -44 228 -40 c 1
EndSplineSet
EndChar

StartChar: hyphen
Encoding: 45 45 13
Width: 678
Flags: W
HStem: 322 187<75 603>
VStem: 75 528<322 509>
LayerCount: 2
Fore
SplineSet
75 322 m 1
 75 509 l 1
 603 509 l 1
 603 322 l 1
 75 322 l 1
EndSplineSet
EndChar

StartChar: period
Encoding: 46 46 14
Width: 418
Flags: W
HStem: -45 268<109.826 307.448>
VStem: 75 268<-10.3005 188.637>
LayerCount: 2
Fore
SplineSet
343 89 m 0
 343 21 290 -45 209 -45 c 0
 129 -45 75 20 75 89 c 0
 75 158 129 223 209 223 c 0
 287 223 343 159 343 89 c 0
EndSplineSet
EndChar

StartChar: slash
Encoding: 47 47 15
Width: 777
Flags: W
VStem: 75 627
LayerCount: 2
Fore
SplineSet
263 -43 m 1
 75 -43 l 1
 516 1240 l 1
 702 1240 l 1
 263 -43 l 1
EndSplineSet
EndChar

StartChar: zero
Encoding: 48 48 16
Width: 1115
Flags: W
HStem: 0 121<433.754 675.69> 1122 122<431.78 676.591>
VStem: 120 215<297.495 951.407> 785 216<293.646 951.752>
LayerCount: 2
Fore
SplineSet
562 1244 m 0
 753 1244 1001 1159 1001 626 c 0
 1001 174 833 0 554 0 c 0
 366 0 120 83 120 626 c 0
 120 1166 371 1244 562 1244 c 0
554 121 m 0
 695 121 785 232 785 626 c 0
 785 1020 695 1122 554 1122 c 0
 383 1122 335 969 335 626 c 0
 335 282 384 121 554 121 c 0
EndSplineSet
EndChar

StartChar: one
Encoding: 49 49 17
Width: 932
Flags: W
HStem: 0 96<109 184.117 796.763 858> 1210 20G<501.703 633>
VStem: 385 248<145 1019>
LayerCount: 2
Fore
SplineSet
633 1230 m 1
 633 145 l 1
 858 95 l 1
 858 0 l 1
 109 0 l 1
 109 96 l 1
 385 145 l 1
 385 1019 l 1
 135 934 l 1
 135 1028 l 1
 542 1230 l 1
 633 1230 l 1
EndSplineSet
EndChar

StartChar: two
Encoding: 50 50 18
Width: 1085
Flags: W
HStem: 0 189<332 962> 1096 125<301.572 650.407>
VStem: 164 104<900 967.77> 718 221<703.884 1032.29>
LayerCount: 2
Fore
SplineSet
164 1177 m 1
 340 1219 405 1221 484 1221 c 0
 878 1221 939 1026 939 897 c 0
 939 681 797 541 637 413 c 1
 332 189 l 1
 962 189 l 1
 962 0 l 1
 123 0 l 1
 123 162 l 1
 446 433 l 1
 645 590 718 695 718 890 c 0
 718 1055 619 1096 484 1096 c 0
 408 1096 340 1076 301 1056 c 1
 268 900 l 1
 164 900 l 1
 164 1177 l 1
EndSplineSet
EndChar

StartChar: three
Encoding: 51 51 19
Width: 1103
Flags: W
HStem: -18 124<287.559 701.913> 569 121<353 651.867> 1095 125<317.69 667.225>
VStem: 139 106<263.584 324> 177 105<899 966.77> 726 221<755.982 1038.54> 786 216<184.525 484.856>
LayerCount: 2
Fore
SplineSet
177 1176 m 1xec
 276 1202 360 1220 501 1220 c 0
 831 1220 947 1096 947 910 c 0xec
 947 772 879 680 768 635 c 1
 911 595 1002 506 1002 339 c 0
 1002 87 798 -18 517 -18 c 0
 355 -18 244 3 151 25 c 1
 139 324 l 1
 245 324 l 1
 287 147 l 1
 328 128 415 106 501 106 c 0
 733 106 786 199 786 349 c 0xf2
 786 501 689 554 523 561 c 1
 353 569 l 1
 353 690 l 1
 523 700 l 1
 652 705 726 755 726 899 c 0
 726 1047 651 1095 501 1095 c 0
 424 1095 355 1075 315 1055 c 1
 282 899 l 1
 177 899 l 1
 177 1176 l 1xec
EndSplineSet
EndChar

StartChar: four
Encoding: 52 52 20
Width: 1100
Flags: W
HStem: 0 21G<646 851> 241 179<232 646 851 1014> 1194 20G<686.369 851>
VStem: 631 220<442.62 931> 646 205<0 241 420 908.38>
LayerCount: 2
Fore
SplineSet
1014 241 m 1xe8
 851 241 l 1
 851 0 l 1
 646 0 l 1
 646 241 l 1
 58 241 l 1
 58 390 l 1
 702 1214 l 1
 851 1214 l 1
 851 420 l 1
 1014 420 l 1
 1014 241 l 1xe8
646 420 m 1
 631 931 l 1xf0
 232 420 l 1
 646 420 l 1
EndSplineSet
EndChar

StartChar: five
Encoding: 53 53 21
Width: 1077
Flags: W
HStem: -19 125<290.413 680.498> 604 126<314.152 687.783> 1041 189<312 893>
VStem: 140 105<263.243 324> 181 131<714 1041> 767 216<187.15 530.175>
LayerCount: 2
Fore
SplineSet
463 604 m 0xf4
 413 604 360 600 295 582 c 1
 181 582 l 1
 181 1230 l 1
 893 1230 l 1
 893 1041 l 1
 312 1041 l 1
 312 714 l 1xec
 383 727 459 730 513 730 c 0
 773 730 983 658 983 370 c 0
 983 106 800 -19 496 -19 c 0
 282 -19 174 16 140 26 c 1
 140 324 l 1
 245 324 l 1
 287 146 l 1
 329 125 403 106 479 106 c 0
 713 106 767 199 767 361 c 0
 767 532 712 604 463 604 c 0xf4
EndSplineSet
EndChar

StartChar: six
Encoding: 54 54 22
Width: 1111
Flags: W
HStem: -18 121<456.051 724.448> 611 136<380.355 733.543> 1095 125<478.848 791.45>
VStem: 117 215<295.479 585.251 685 885.028> 788 216<173.918 554.442> 827 103<931 984.658>
LayerCount: 2
Fore
SplineSet
627 1220 m 0xf8
 742 1220 840 1205 930 1184 c 1
 930 931 l 1
 827 931 l 1xf4
 792 1062 l 1
 757 1078 687 1095 627 1095 c 0
 512 1095 344 1032 334 685 c 1
 408 716 520 747 638 747 c 0
 826 747 1004 668 1004 386 c 0
 1004 137 870 -18 589 -18 c 0
 386 -18 117 74 117 596 c 0
 117 1093 409 1220 627 1220 c 0xf8
599 611 m 0
 503 611 410 596 332 575 c 1
 335 210 440 103 585 103 c 0
 722 103 788 161 788 369 c 0xf8
 788 565 715 611 599 611 c 0
EndSplineSet
EndChar

StartChar: seven
Encoding: 55 55 23
Width: 1062
Flags: W
HStem: 0 21G<197 379.683> 1019 211<255 776>
VStem: 115 109<872 939.98>
LayerCount: 2
Fore
SplineSet
224 872 m 1
 115 872 l 1
 115 1230 l 1
 963 1230 l 1
 963 1112 l 1
 369 0 l 1
 197 0 l 1
 776 1019 l 1
 255 1019 l 1
 224 872 l 1
EndSplineSet
EndChar

StartChar: eight
Encoding: 56 56 24
Width: 1123
Flags: W
HStem: -18 121<401.186 729.027> 575 129<422.234 710.377> 1104 122<427.785 704.47>
VStem: 129 212<160.828 513.265> 166 212<747.614 1054.8> 762 212<751.503 1051.91> 799 212<170.161 509.536>
LayerCount: 2
Fore
SplineSet
572 1226 m 0xe8
 820 1226 974 1120 974 901 c 0xec
 974 763 900 684 828 640 c 1
 920 594 1011 502 1011 337 c 0
 1011 53 808 -18 564 -18 c 0
 243 -18 129 124 129 337 c 0xf2
 129 503 219 594 312 641 c 1
 241 684 166 763 166 901 c 0
 166 1065 259 1226 572 1226 c 0xe8
564 103 m 0
 756 103 799 192 799 339 c 0
 799 491 749 575 564 575 c 0
 382 575 341 496 341 339 c 0xf2
 341 180 382 103 564 103 c 0
565 704 m 0
 683 704 762 741 762 901 c 0
 762 1058 683 1104 565 1104 c 0
 452 1104 378 1062 378 901 c 0xec
 378 747 441 704 565 704 c 0
EndSplineSet
EndChar

StartChar: nine
Encoding: 57 57 25
Width: 1122
Flags: W
HStem: -18 124<309.34 638.442> 454 137<407.179 756.271> 1098 122<419.173 687.735>
VStem: 125 215<658.658 1014.24> 172 104<210.072 271> 794 217<319.601 514 616.406 943.16>
LayerCount: 2
Fore
SplineSet
480 -18 m 0xf4
 295 -18 202 10 172 17 c 1
 172 271 l 1
 276 271 l 1xec
 308 135 l 1
 340 122 401 106 476 106 c 0
 600 106 783 161 794 514 c 1
 718 480 622 454 510 454 c 0
 315 454 125 548 125 827 c 0
 125 1079 283 1220 562 1220 c 0
 842 1220 1011 1076 1011 606 c 0
 1011 82 707 -18 480 -18 c 0xf4
561 591 m 0
 650 591 728 608 794 630 c 1
 791 1009 698 1098 565 1098 c 0
 427 1098 340 1029 340 824 c 0xf4
 340 641 426 591 561 591 c 0
EndSplineSet
EndChar

StartChar: colon
Encoding: 58 58 26
Width: 417
Flags: W
HStem: -23 268<109.826 306.924> 617 268<109.826 307.65>
VStem: 75 267<12.0363 210.637 652.189 850.301>
LayerCount: 2
Fore
SplineSet
342 111 m 0
 342 44 289 -23 209 -23 c 0
 129 -23 75 42 75 111 c 0
 75 180 129 245 209 245 c 0
 287 245 342 181 342 111 c 0
342 751 m 0
 342 672 278 617 209 617 c 0
 129 617 75 682 75 751 c 0
 75 819 128 885 209 885 c 0
 289 885 342 819 342 751 c 0
EndSplineSet
EndChar

StartChar: semicolon
Encoding: 59 59 27
Width: 475
Flags: W
HStem: 617 268<160.505 357.241>
VStem: 112 288<13.7366 174.625 664.123 836.251> 234 166<-122.707 101.5>
LayerCount: 2
Fore
SplineSet
228 -40 m 1xa0
 202 -12 112 1 112 98 c 0
 112 179 171 223 246 223 c 0
 336 223 400 151 400 52 c 0xc0
 400 -159 248 -258 107 -300 c 2
 75 -309 l 1
 75 -188 l 1
 92 -182 l 2
 163 -159 234 -124 234 -56 c 1
 233 -48 232 -44 228 -40 c 1xa0
391 751 m 0
 391 671 329 617 260 617 c 0
 182 617 124 679 124 751 c 0
 124 819 180 885 260 885 c 0
 339 885 391 820 391 751 c 0
EndSplineSet
EndChar

StartChar: less
Encoding: 60 60 28
Width: 1051
Flags: W
LayerCount: 2
Fore
SplineSet
976 913 m 1
 976 734 l 1
 415 520 l 1
 976 299 l 1
 976 121 l 1
 75 485 l 1
 75 556 l 1
 976 913 l 1
EndSplineSet
EndChar

StartChar: equal
Encoding: 61 61 29
Width: 1046
Flags: W
HStem: 276 167<75 971> 587 167<75 971>
LayerCount: 2
Fore
SplineSet
75 754 m 1
 971 754 l 1
 971 587 l 1
 75 587 l 1
 75 754 l 1
75 443 m 1
 971 443 l 1
 971 276 l 1
 75 276 l 1
 75 443 l 1
EndSplineSet
EndChar

StartChar: greater
Encoding: 62 62 30
Width: 1051
Flags: W
LayerCount: 2
Fore
SplineSet
75 913 m 1
 976 556 l 1
 976 485 l 1
 75 121 l 1
 75 299 l 1
 636 520 l 1
 75 734 l 1
 75 913 l 1
EndSplineSet
EndChar

StartChar: question
Encoding: 63 63 31
Width: 847
Flags: W
HStem: -45 268<245.826 443.287> 1085 160<210.606 524.735>
VStem: 75 103<927 980.434> 211 267<-9.96368 188.637> 293 131<289 402.021> 556 216<714.437 1056.44>
LayerCount: 2
Fore
SplineSet
75 1200 m 1xf4
 161 1224 248 1245 365 1245 c 0
 720 1245 772 1046 772 914 c 0
 772 682 639 571 469 536 c 1
 448 531 l 1
 424 289 l 1
 293 289 l 1xec
 250 628 l 1
 429 665 l 1
 526 684 556 768 556 903 c 0
 556 1064 509 1085 363 1085 c 0
 302 1085 250 1071 211 1050 c 1
 178 927 l 1
 75 927 l 1
 75 1200 l 1xf4
478 89 m 0xf4
 478 22 425 -45 345 -45 c 0
 265 -45 211 20 211 89 c 0
 211 158 265 223 345 223 c 0
 424 223 478 158 478 89 c 0xf4
EndSplineSet
EndChar

StartChar: at
Encoding: 64 64 32
Width: 1343
Flags: W
HStem: -380 143<314.24 697.709> -49 201<406.5 616.826> -16 197<817 1055.38> 557 184<616.261 871.157> 995 131<655.074 1042.16>
VStem: 65 141<-102.621 447.796> 304 211<154.293 432.964> 1149 129<380.612 887.848>
LayerCount: 2
Fore
SplineSet
515 239 m 0xdf
 515 197 519 152 556 152 c 0
 584 152 672 173 732 319 c 0
 759 385 769 465 780 552 c 1
 761 556 744 557 728 557 c 0
 558 557 515 334 515 239 c 0xdf
899 -230 m 1
 781 -314 633 -380 452 -380 c 0
 300 -380 101 -302 71 21 c 0
 67 65 65 109 65 152 c 0xdf
 65 741 464 1126 885 1126 c 0
 1095 1126 1253 998 1273 784 c 0
 1276 748 1278 712 1278 677 c 0
 1278 343 1108 -16 855 -16 c 0xbf
 779 -16 731 23 730 125 c 1
 682 43 604 -49 475 -49 c 0xdf
 338 -49 304 75 304 214 c 0
 304 406 398 741 769 741 c 0
 838 741 919 731 1012 711 c 2
 1037 706 l 1
 1031 682 l 2
 968 398 947 245 947 193 c 0
 947 181 952 181 975 181 c 1xbf
 1024 188 1149 364 1149 652 c 0
 1149 798 1134 882 1053 944 c 0
 1009 977 952 995 877 995 c 0
 638 995 478 868 363 692 c 0
 247 515 206 335 206 163 c 0
 206 73 217 -98 297 -179 c 0
 317 -200 362 -237 461 -237 c 0
 562 -237 730 -206 859 -106 c 2
 899 -75 l 1
 899 -230 l 1
EndSplineSet
EndChar

StartChar: A
Encoding: 65 65 33
Width: 1448
Flags: W
HStem: 0 48<-3 74.7452 354.264 442 835 923.31 1306.78 1395> 396 131<439 838> 1197 20G<558.511 809.577>
LayerCount: 2
Fore
SplineSet
442 48 m 1
 442 0 l 1
 -3 0 l 1
 -3 48 l 1
 138 74 l 1
 566 1217 l 1
 802 1217 l 1
 1235 74 l 1
 1395 48 l 1
 1395 0 l 1
 835 0 l 1
 835 48 l 1
 989 73 l 1
 884 396 l 1
 395 396 l 1
 289 73 l 1
 442 48 l 1
838 527 m 1
 636 1014 l 1
 439 527 l 1
 838 527 l 1
EndSplineSet
EndChar

StartChar: B
Encoding: 66 66 34
Width: 1373
Flags: W
HStem: -6 131<211.779 257 491 957.293> 0 93<102 190.883> 563 131<491 881.318> 1076 131<491 889.912> 1159 48<102 198.612>
VStem: 257 234<130 563 694 1076> 955 241<762.086 1017.56> 1052 237<208.997 481.86>
LayerCount: 2
Fore
SplineSet
677 694 m 2x36
 903 694 955 777 955 900 c 0
 955 1041 843 1076 665 1076 c 2
 491 1076 l 1
 491 694 l 1
 677 694 l 2x36
749 125 m 0xa5
 982 125 1052 217 1052 356 c 0
 1052 480 982 563 697 563 c 2
 491 563 l 1
 491 130 l 1
 574 127 662 125 749 125 c 0xa5
774 -6 m 0
 565 -6 524 0 359 0 c 2
 102 0 l 1
 102 93 l 1
 257 118 l 1
 257 1136 l 1
 102 1159 l 1
 102 1207 l 1x6d
 705 1207 l 2
 988 1207 1196 1148 1196 910 c 0x36
 1196 777 1119 693 1020 648 c 1
 1180 609 1289 512 1289 357 c 0
 1289 214 1222 -6 774 -6 c 0
EndSplineSet
EndChar

StartChar: C
Encoding: 67 67 35
Width: 1412
Flags: W
HStem: -18 119<575.991 1052.34> 1098 122<560.986 1050.54>
VStem: 108 239<339.921 862.665> 1137 107<861 942.567> 1156 106<293.766 372>
LayerCount: 2
Fore
SplineSet
347 591 m 0xf0
 347 168 608 101 789 101 c 0
 960 101 1072 147 1121 181 c 1
 1156 372 l 1
 1262 372 l 1xe8
 1255 44 l 1
 1138 11 987 -18 787 -18 c 0
 359 -18 108 199 108 589 c 0
 108 1005 333 1220 791 1220 c 0
 969 1220 1106 1197 1237 1169 c 1
 1244 861 l 1
 1137 861 l 1
 1108 1026 l 1
 1008 1084 878 1098 799 1098 c 0
 527 1098 347 989 347 591 c 0xf0
EndSplineSet
EndChar

StartChar: D
Encoding: 68 68 36
Width: 1489
Flags: W
HStem: -4 131<454 920.148> 0 48<76 164.883> 1076 131<454 863.882> 1159 48<76 168.587>
VStem: 231 223<133 1076> 1142 238<354.922 828.662>
LayerCount: 2
Fore
SplineSet
690 127 m 0xac
 962 127 1142 236 1142 611 c 0
 1142 989 850 1076 591 1076 c 2
 454 1076 l 1
 454 133 l 1
 502 131 603 127 690 127 c 0xac
690 -4 m 0
 505 -4 390 0 256 0 c 2
 76 0 l 1
 76 48 l 1
 231 73 l 1
 231 1135 l 1
 76 1159 l 1
 76 1207 l 1x5c
 649 1207 l 2
 1046 1207 1380 1088 1380 610 c 0
 1380 298 1244 -4 690 -4 c 0
EndSplineSet
EndChar

StartChar: E
Encoding: 69 69 37
Width: 1290
Flags: W
HStem: 0 131<466 996.646> 0 48<76 164.31> 548 131<466 773> 1076 131<466 944.041> 1159 48<76 167.989>
VStem: 230 236<131 548 679 1076> 803 112<403 472.291 754.187 823> 975 106<868 965.386> 1052 105<306.418 369>
LayerCount: 2
Fore
SplineSet
76 48 m 1x6680
 230 73 l 1
 230 1135 l 1
 76 1159 l 1
 76 1207 l 1
 1081 1207 l 1x6f
 1081 868 l 1
 975 868 l 1
 946 1065 l 1
 905 1070 813 1076 654 1076 c 2
 466 1076 l 1
 466 679 l 1
 773 679 l 1
 803 823 l 1
 915 823 l 1
 915 403 l 1
 803 403 l 1
 773 548 l 1
 466 548 l 1
 466 131 l 1
 699 131 l 2xb7
 759 131 930 133 1000 142 c 1
 1052 369 l 1
 1157 369 l 1
 1138 0 l 1
 76 0 l 1
 76 48 l 1x6680
EndSplineSet
EndChar

StartChar: F
Encoding: 70 70 38
Width: 1209
Flags: W
HStem: 0 48<84 166.002 536.312 651> 517 131<465 802> 1076 131<465 940.137> 1159 48<72 164.587>
VStem: 227 224<73 517 648 1076> 838 101<371 429.14 723.187 792> 971 107<868 965.88>
LayerCount: 2
Fore
SplineSet
451 517 m 1xee
 451 73 l 1
 651 48 l 1
 651 0 l 1
 84 0 l 1
 84 48 l 1
 227 73 l 1
 227 1135 l 1
 72 1159 l 1
 72 1207 l 1
 1078 1207 l 1xde
 1078 868 l 1
 971 868 l 1
 942 1066 l 1
 903 1070 816 1076 656 1076 c 2
 465 1076 l 1
 465 648 l 1
 808 648 l 1
 838 792 l 1
 939 792 l 1
 939 371 l 1
 838 371 l 1
 802 517 l 1
 451 517 l 1xee
EndSplineSet
EndChar

StartChar: G
Encoding: 71 71 39
Width: 1466
Flags: W
HStem: -18 119<567.641 1045.64> 458 94<895 997.845 1329.76 1406> 1098 122<560.089 1046.79>
VStem: 109 238<339.541 863.168> 1060 229<134.963 435> 1150 107<857 938.408>
LayerCount: 2
Fore
SplineSet
785 1220 m 0xf8
 915 1220 1074 1208 1257 1160 c 1
 1257 857 l 1
 1150 857 l 1xf4
 1122 1016 l 1
 1044 1065 927 1098 792 1098 c 0
 525 1098 347 985 347 591 c 0
 347 342 434 101 783 101 c 0
 886 101 1003 126 1060 149 c 1
 1060 435 l 1
 895 458 l 1
 895 552 l 1
 1406 552 l 1
 1406 458 l 1
 1289 436 l 1
 1289 66 l 1
 1183 33 995 -18 800 -18 c 2
 781 -18 l 2
 359 -18 109 196 109 589 c 0
 109 1087 428 1220 785 1220 c 0xf8
EndSplineSet
EndChar

StartChar: H
Encoding: 72 72 40
Width: 1499
Flags: W
HStem: 0 48<76 164.883 520.69 609 868 956.31 1311.12 1400> 556 131<455 1022> 1159 48<76 168.587 517.011 609 868 959.989 1307.41 1400>
VStem: 231 224<73 556 687 1135> 1022 223<73 556 687 1135>
LayerCount: 2
Fore
SplineSet
76 0 m 1
 76 48 l 1
 231 73 l 1
 231 1135 l 1
 76 1159 l 1
 76 1207 l 1
 609 1207 l 1
 609 1159 l 1
 455 1135 l 1
 455 687 l 1
 1022 687 l 1
 1022 1135 l 1
 868 1159 l 1
 868 1207 l 1
 1400 1207 l 1
 1400 1159 l 1
 1245 1135 l 1
 1245 73 l 1
 1400 48 l 1
 1400 0 l 1
 868 0 l 1
 868 48 l 1
 1022 73 l 1
 1022 556 l 1
 455 556 l 1
 455 73 l 1
 609 48 l 1
 609 0 l 1
 76 0 l 1
EndSplineSet
EndChar

StartChar: I
Encoding: 73 73 41
Width: 707
Flags: W
HStem: 0 48<76 164.883 519.117 608> 1159 48<76 168.587 515.413 608>
VStem: 231 222<73 1135>
LayerCount: 2
Fore
SplineSet
453 1135 m 1
 453 73 l 1
 608 48 l 1
 608 0 l 1
 76 0 l 1
 76 48 l 1
 231 73 l 1
 231 1135 l 1
 76 1159 l 1
 76 1207 l 1
 608 1207 l 1
 608 1159 l 1
 453 1135 l 1
EndSplineSet
EndChar

StartChar: J
Encoding: 74 74 42
Width: 935
Flags: W
HStem: -19 127<230.822 423.439> 1111 96<272 392.149 743.157 836>
VStem: 97 104<212.054 278> 448 252<184.074 1090>
LayerCount: 2
Fore
SplineSet
308 -19 m 0
 181 -19 126 5 97 16 c 1
 97 278 l 1
 201 278 l 1
 231 140 l 1
 245 126 274 108 326 108 c 0
 398 108 448 141 448 247 c 2
 448 1090 l 1
 272 1111 l 1
 272 1207 l 1
 836 1207 l 1
 836 1111 l 1
 700 1090 l 1
 700 395 l 2
 700 72 472 -19 308 -19 c 0
EndSplineSet
EndChar

StartChar: K
Encoding: 75 75 43
Width: 1488
Flags: W
HStem: 0 48<76 164.883 523.661 627 1360.13 1435> 1159 48<76 168.587 512.388 609 913 991.426 1256.64 1341>
VStem: 231 223<73 446 648 1135>
LayerCount: 2
Fore
SplineSet
1341 1207 m 1
 1341 1159 l 1
 1188 1133 l 1
 775 736 l 1
 1294 75 l 1
 1435 48 l 1
 1435 0 l 1
 1103 0 l 1
 588 553 l 1
 454 446 l 1
 454 72 l 1
 627 48 l 1
 627 0 l 1
 76 0 l 1
 76 48 l 1
 231 73 l 1
 231 1135 l 1
 76 1159 l 1
 76 1207 l 1
 609 1207 l 1
 609 1159 l 1
 454 1136 l 1
 454 648 l 1
 1006 1142 l 1
 913 1159 l 1
 913 1207 l 1
 1341 1207 l 1
EndSplineSet
EndChar

StartChar: L
Encoding: 76 76 44
Width: 1239
Flags: W
HStem: 0 127<455 976.227> 0 48<76 164.883> 1159 48<76 168.587 525.065 641>
VStem: 231 224<127 1135> 1035 105<332.865 397>
LayerCount: 2
Fore
SplineSet
641 1159 m 1x78
 455 1136 l 1
 455 127 l 1
 675 127 l 2xb8
 851 127 941 136 978 142 c 1
 1035 397 l 1
 1140 397 l 1
 1121 0 l 1
 76 0 l 1
 76 48 l 1
 231 73 l 1
 231 1135 l 1
 76 1159 l 1
 76 1207 l 1
 641 1207 l 1
 641 1159 l 1x78
EndSplineSet
EndChar

StartChar: M
Encoding: 77 77 45
Width: 1819
Flags: W
HStem: 0 48<76 164.883 440.232 537 1218 1314.77 1669.12 1758> 1159 48<76 168.587 1615.41 1708>
VStem: 231 144<73 894>
LayerCount: 2
Fore
SplineSet
890 0 m 1
 825 0 l 1
 375 894 l 1
 375 72 l 1
 537 48 l 1
 537 0 l 1
 76 0 l 1
 76 48 l 1
 231 73 l 1
 231 1135 l 1
 76 1159 l 1
 76 1207 l 1
 484 1207 l 1
 914 325 l 1
 1321 1207 l 1
 1708 1207 l 1
 1708 1159 l 1
 1553 1135 l 1
 1603 73 l 1
 1758 48 l 1
 1758 0 l 1
 1218 0 l 1
 1218 48 l 1
 1380 72 l 1
 1330 903 l 1
 890 0 l 1
EndSplineSet
EndChar

StartChar: N
Encoding: 78 78 46
Width: 1510
Flags: W
HStem: 0 48<76 164.31 443.051 544> 1159 48<76 167.989 950 1050.98 1315.01 1411>
VStem: 230 145<73 983> 1112 145<415 1136>
LayerCount: 2
Fore
SplineSet
1112 415 m 1
 1112 1136 l 1
 950 1159 l 1
 950 1207 l 1
 1411 1207 l 1
 1411 1159 l 1
 1257 1136 l 1
 1257 0 l 1
 1131 0 l 1
 375 983 l 1
 375 72 l 1
 544 48 l 1
 544 0 l 1
 76 0 l 1
 76 48 l 1
 230 73 l 1
 230 1135 l 1
 76 1159 l 1
 76 1207 l 1
 479 1207 l 1
 1112 415 l 1
EndSplineSet
EndChar

StartChar: O
Encoding: 79 79 47
Width: 1502
Flags: W
HStem: -18 121<542.634 959.93> 1098 122<535.635 966.061>
VStem: 112 238<328.614 885.788> 1153 238<328.393 877.746>
LayerCount: 2
Fore
SplineSet
751 1098 m 0
 510 1098 350 1002 350 605 c 0
 350 308 430 103 751 103 c 0
 1073 103 1153 307 1153 605 c 0
 1153 901 1073 1098 751 1098 c 0
751 -18 m 0
 425 -18 112 113 112 605 c 0
 112 920 235 1220 751 1220 c 0
 1085 1220 1391 1089 1391 605 c 0
 1391 113 1078 -18 751 -18 c 0
EndSplineSet
EndChar

StartChar: P
Encoding: 80 80 48
Width: 1175
Flags: W
HStem: 0 48<84 166.002 531.9 642> 448 131<450 727.547> 1076 131<450 743.511> 1159 48<72 164.587>
VStem: 227 223<73 448 579 1076> 841 229<675.799 990.391>
LayerCount: 2
Fore
SplineSet
519 579 m 2xec
 771 579 841 679 841 837 c 0
 841 1007 760 1076 514 1076 c 2
 450 1076 l 1
 450 579 l 1
 519 579 l 2xec
1070 838 m 0
 1070 638 960 448 561 448 c 2
 450 448 l 1
 450 73 l 1
 642 48 l 1
 642 0 l 1
 84 0 l 1
 84 48 l 1
 227 73 l 1
 227 1135 l 1
 72 1159 l 1
 72 1207 l 1xdc
 552 1207 l 2
 939 1207 1070 1059 1070 838 c 0
EndSplineSet
EndChar

StartChar: Q
Encoding: 81 81 49
Width: 1518
Flags: W
HStem: -315 139<1235.51 1432.52> -272 100<1235.82 1436> -34 121<542.433 832.914> 1083 124<545.118 960.075>
VStem: 112 238<311.432 866.576> 1152 240<309.712 860.892>
LayerCount: 2
Fore
SplineSet
751 1083 m 0x3c
 430 1083 350 883 350 587 c 0
 350 290 430 87 751 87 c 0
 1071 87 1152 291 1152 587 c 0
 1152 881 1071 1083 751 1083 c 0x3c
1436 -272 m 1x7c
 1362 -305 1272 -315 1234 -315 c 0
 1075 -315 993 -236 849 -68 c 1
 819 -31 l 1
 802 -33 780 -34 751 -34 c 0
 424 -34 112 97 112 587 c 0
 112 992 316 1207 751 1207 c 0
 1081 1207 1392 1074 1392 588 c 0
 1392 305 1288 120 1080 28 c 1
 1106 0 l 1
 1201 -113 1270 -176 1337 -176 c 0xbc
 1340 -176 1345 -175 1353 -175 c 2
 1396 -173 l 2
 1402 -173 1405 -172 1411 -172 c 2
 1436 -172 l 1
 1436 -272 l 1x7c
EndSplineSet
EndChar

StartChar: R
Encoding: 82 82 50
Width: 1399
Flags: W
HStem: 0 48<84 166.002 528.634 633 1268.25 1346> 504 131<451 629> 1076 131<451 802.92> 1159 48<72 164.587>
VStem: 227 224<73 504 635 1076> 890 246<709.173 1003.76>
LayerCount: 2
Fore
SplineSet
1136 861 m 0xec
 1136 679 1028 568 886 519 c 1
 1205 74 l 1
 1346 48 l 1
 1346 0 l 1
 1018 0 l 1
 629 504 l 1
 451 504 l 1
 451 73 l 1
 633 48 l 1
 633 0 l 1
 84 0 l 1
 84 48 l 1
 227 73 l 1
 227 1135 l 1
 72 1159 l 1
 72 1207 l 1xdc
 618 1207 l 2
 1026 1207 1136 1069 1136 861 c 0xec
585 635 m 2
 797 635 890 685 890 859 c 0
 890 1025 804 1076 580 1076 c 2
 451 1076 l 1xec
 451 635 l 1
 585 635 l 2
EndSplineSet
EndChar

StartChar: S
Encoding: 83 83 51
Width: 1151
Flags: W
HStem: -18 123<356.709 742.716> 1095 125<406.966 807.667>
VStem: 144 201<846.321 1035.24> 144 106<300.368 375> 828 203<185.659 419.443> 865 103<880 946.62>
LayerCount: 2
Fore
SplineSet
603 1220 m 0xe8
 692 1220 796 1216 968 1177 c 1
 968 880 l 1
 865 880 l 1
 831 1038 l 1
 783 1070 703 1095 603 1095 c 0
 385 1095 345 1001 345 940 c 0xe4
 345 896 356 821 549 764 c 2
 683 724 l 1
 865 667 1031 588 1031 356 c 0
 1031 168 925 -18 562 -18 c 0
 339 -18 209 28 144 54 c 1
 144 375 l 1
 250 375 l 1xd8
 284 198 l 1
 324 153 440 105 557 105 c 0
 779 105 828 219 828 313 c 0
 828 359 821 447 624 508 c 1
 491 548 l 1
 312 602 144 674 144 901 c 0
 144 1133 355 1220 603 1220 c 0xe8
EndSplineSet
EndChar

StartChar: T
Encoding: 84 84 52
Width: 1400
Flags: W
HStem: 0 48<359 483.245 891.949 1015> 873 334<109 216 1163 1271> 1080 127<244.186 567 809 1135.75>
VStem: 109 107<873 983.674> 567 242<72 1080> 1163 108<873 983.1>
LayerCount: 2
Fore
SplineSet
359 0 m 1xbc
 359 48 l 1
 567 72 l 1
 567 1080 l 1
 544 1080 l 2xbc
 438 1080 308 1076 241 1066 c 1
 216 873 l 1
 109 873 l 1
 109 1207 l 1
 1271 1207 l 1
 1271 873 l 1
 1163 873 l 1xdc
 1138 1065 l 1
 1091 1071 974 1080 829 1080 c 2
 809 1080 l 1
 809 72 l 1
 1015 48 l 1
 1015 0 l 1
 359 0 l 1xbc
EndSplineSet
EndChar

StartChar: U
Encoding: 85 85 53
Width: 1509
Flags: W
HStem: -19 151<548.789 979.897> 1111 96<57 157.352 483.187 589 949 1054.57 1309.65 1410>
VStem: 211 223<245.516 1089> 1111 145<256.484 1089>
LayerCount: 2
Fore
SplineSet
752 132 m 0
 985 132 1111 217 1111 417 c 2
 1111 1089 l 1
 949 1111 l 1
 949 1207 l 1
 1410 1207 l 1
 1410 1111 l 1
 1256 1089 l 1
 1256 420 l 2
 1256 195 1149 -19 735 -19 c 0
 326 -19 211 186 211 403 c 2
 211 1089 l 1
 57 1111 l 1
 57 1207 l 1
 589 1207 l 1
 589 1111 l 1
 434 1090 l 1
 434 420 l 2
 434 190 573 132 752 132 c 0
EndSplineSet
EndChar

StartChar: V
Encoding: 86 86 54
Width: 1500
Flags: W
HStem: 1112 95<12 97.4187 454.258 549 959 1051.25 1317.97 1401>
LayerCount: 2
Fore
SplineSet
1401 1207 m 1
 1401 1112 l 1
 1262 1088 l 1
 750 -29 l 1
 660 -29 l 1
 155 1088 l 1
 12 1112 l 1
 12 1207 l 1
 549 1207 l 1
 549 1112 l 1
 397 1089 l 1
 753 287 l 1
 1107 1089 l 1
 959 1112 l 1
 959 1207 l 1
 1401 1207 l 1
EndSplineSet
EndChar

StartChar: W
Encoding: 87 87 55
Width: 1962
Flags: W
HStem: 1113 94<28 94.9013 442.089 539 1413 1516.22 1796.1 1863>
LayerCount: 2
Fore
SplineSet
1863 1113 m 1
 1751 1089 l 1
 1352 -29 l 1
 1264 -29 l 1
 950 757 l 1
 628 -29 l 1
 540 -29 l 1
 140 1089 l 1
 28 1113 l 1
 28 1207 l 1
 539 1207 l 1
 539 1113 l 1
 370 1088 l 1
 631 332 l 1
 956 1121 l 1
 1035 1121 l 1
 1347 335 l 1
 1593 1088 l 1
 1413 1113 l 1
 1413 1207 l 1
 1863 1207 l 1
 1863 1113 l 1
EndSplineSet
EndChar

StartChar: X
Encoding: 88 88 56
Width: 1452
Flags: W
HStem: 0 48<42 118.459 397.936 486 851 943.16 1320.95 1399> 1159 48<99 179.502 550.232 647 875 967.467 1240.6 1320>
LayerCount: 2
Fore
SplineSet
690 476 m 1
 357 69 l 1
 486 48 l 1
 486 0 l 1
 42 0 l 1
 42 48 l 1
 186 75 l 1
 579 618 l 1
 245 1133 l 1
 99 1159 l 1
 99 1207 l 1
 647 1207 l 1
 647 1159 l 1
 512 1139 l 1
 741 828 l 1
 1004 1139 l 1
 875 1159 l 1
 875 1207 l 1
 1320 1207 l 1
 1320 1159 l 1
 1176 1133 l 1
 846 686 l 1
 1252 75 l 1
 1399 48 l 1
 1399 0 l 1
 851 0 l 1
 851 48 l 1
 986 69 l 1
 690 476 l 1
EndSplineSet
EndChar

StartChar: Y
Encoding: 89 89 57
Width: 1414
Flags: W
HStem: 0 48<319 429.1 858.445 976> 1159 48<-49 31.5022 412.013 511 872 966.208 1236.7 1315>
VStem: 511 260<73 457>
LayerCount: 2
Fore
SplineSet
771 462 m 1
 771 73 l 1
 976 48 l 1
 976 0 l 1
 319 0 l 1
 319 48 l 1
 511 73 l 1
 511 457 l 1
 97 1133 l 1
 -49 1159 l 1
 -49 1207 l 1
 511 1207 l 1
 511 1159 l 1
 366 1138 l 1
 696 649 l 1
 1010 1138 l 1
 872 1159 l 1
 872 1207 l 1
 1315 1207 l 1
 1315 1159 l 1
 1173 1133 l 1
 771 462 l 1
EndSplineSet
EndChar

StartChar: Z
Encoding: 90 90 58
Width: 1281
Flags: W
HStem: 0 126<389 991.269> 1080 127<316.043 817>
VStem: 176 109<872 971.328> 1049 110<323.612 386>
LayerCount: 2
Fore
SplineSet
120 112 m 1
 817 1080 l 1
 620 1080 l 2
 500 1080 377 1075 313 1066 c 1
 285 872 l 1
 176 872 l 1
 176 1207 l 1
 1098 1207 l 1
 1098 1098 l 1
 389 126 l 1
 626 126 l 2
 736 126 917 137 995 151 c 1
 1049 386 l 1
 1159 386 l 1
 1131 0 l 1
 120 0 l 1
 120 112 l 1
EndSplineSet
EndChar

StartChar: bracketleft
Encoding: 91 91 59
Width: 610
Flags: HW
HStem: -281 89<431.548 535> 1205 89<431.548 535>
VStem: 75 193<-155 1168>
LayerCount: 2
Fore
SplineSet
75 -281 m 1
 75 1294 l 1
 535 1294 l 1
 535 1205 l 1
 268 1168 l 1
 268 -155 l 1
 535 -192 l 1
 535 -281 l 1
 75 -281 l 1
EndSplineSet
EndChar

StartChar: backslash
Encoding: 92 92 60
Width: 777
Flags: W
VStem: 75 627
LayerCount: 2
Fore
SplineSet
515 -43 m 1
 75 1239 l 1
 261 1239 l 1
 702 -43 l 1
 515 -43 l 1
EndSplineSet
EndChar

StartChar: bracketright
Encoding: 93 93 61
Width: 610
Flags: HW
HStem: -281 89<75 178.452> 1205 89<75 178.452>
VStem: 342 193<-155 1168>
LayerCount: 2
Fore
SplineSet
75 -281 m 1
 75 -192 l 1
 342 -155 l 1
 342 1168 l 1
 75 1205 l 1
 75 1294 l 1
 535 1294 l 1
 535 -281 l 1
 75 -281 l 1
EndSplineSet
EndChar

StartChar: asciicircum
Encoding: 94 94 62
Width: 1029
Flags: W
LayerCount: 2
Fore
SplineSet
587 1090 m 1
 954 403 l 1
 760 403 l 1
 514 874 l 1
 268 403 l 1
 75 403 l 1
 442 1090 l 1
 587 1090 l 1
EndSplineSet
EndChar

StartChar: underscore
Encoding: 95 95 63
Width: 1150
Flags: W
HStem: -627 142<75 1075>
LayerCount: 2
Fore
SplineSet
75 -627 m 1
 75 -485 l 1
 1075 -485 l 1
 1075 -627 l 1
 75 -627 l 1
EndSplineSet
EndChar

StartChar: grave
Encoding: 96 96 64
Width: 568
Flags: W
HStem: 931 324
VStem: 75 418
LayerCount: 2
Fore
SplineSet
411 931 m 1
 75 1185 l 1
 75 1255 l 1
 305 1255 l 1
 493 993 l 1
 493 931 l 1
 411 931 l 1
EndSplineSet
EndChar

StartChar: a
Encoding: 97 97 65
Width: 1088
Flags: W
HStem: -20 160<352.941 608.029> 0 90<952.112 1022> 450 120<371.146 677> 835 126<360.053 645.74>
VStem: 113 216<164.067 405.343> 221 100<671 720.778> 677 228<167.279 453 573 810.095>
LayerCount: 2
Fore
SplineSet
221 921 m 1xb6
 397 959 490 961 546 961 c 2
 554 961 l 2
 821 961 905 855 905 695 c 2
 905 114 l 1
 1022 90 l 1
 1022 0 l 1
 711 0 l 1x76
 694 71 l 1
 603 7 491 -20 382 -20 c 0
 224 -20 113 57 113 273 c 0xba
 113 529 315 566 545 570 c 1
 677 573 l 1
 677 685 l 2
 677 805 623 835 541 835 c 0
 495 835 422 826 357 796 c 1
 321 671 l 1
 221 671 l 1
 221 921 l 1xb6
459 140 m 0xba
 462 140 466 140 469 140 c 0
 509 140 570 142 677 182 c 1
 677 453 l 1
 558 450 l 2
 382 446 329 410 329 280 c 0
 329 173 379 140 459 140 c 0xba
EndSplineSet
EndChar

StartChar: b
Encoding: 98 98 66
Width: 1161
Flags: W
HStem: -20 136<393.327 735.229> 810 155<409.621 741.643> 1330 91<27 108.835>
VStem: 164 227<122.585 796.374 910.795 1306> 843 230<240.342 706.283>
LayerCount: 2
Fore
SplineSet
584 116 m 0
 740 116 843 203 843 494 c 0
 843 736 740 810 584 810 c 0
 507 810 431 798 391 786 c 1
 391 127 l 1
 447 120 522 116 584 116 c 0
588 -20 m 0
 493 -20 323 -5 164 54 c 1
 164 1306 l 1
 27 1330 l 1
 27 1421 l 1
 391 1421 l 1
 391 1060 l 2
 391 1047 391 1033 390 1016 c 1
 390 965 l 2
 389 941 388 927 387 910 c 1
 453 944 538 965 634 965 c 0
 807 965 1073 911 1073 495 c 0
 1073 192 936 -20 588 -20 c 0
EndSplineSet
EndChar

StartChar: c
Encoding: 99 99 67
Width: 1078
Flags: W
HStem: -20 154<463.08 878.288> 835 130<437.767 792.861>
VStem: 93 230<266.929 705.599> 839 99<622 677.433>
LayerCount: 2
Fore
SplineSet
961 69 m 1
 852 -10 697 -20 611 -20 c 0
 189 -20 93 222 93 477 c 0
 93 860 343 965 603 965 c 0
 724 965 832 950 918 934 c 2
 938 930 l 1
 938 622 l 1
 839 622 l 1
 794 796 l 1
 762 812 698 835 601 835 c 0
 433 835 323 746 323 477 c 0
 323 254 403 134 677 134 c 0
 787 134 882 151 928 166 c 2
 961 176 l 1
 961 69 l 1
EndSplineSet
EndChar

StartChar: d
Encoding: 100 100 68
Width: 1209
Flags: W
HStem: -20 154<432.955 745.671> 0 90<1055.71 1125> 833 132<442.54 782.629> 1330 91<610 713.936>
VStem: 100 230<247.187 708.979> 784 225<151.072 825.554 946.705 1306>
LayerCount: 2
Fore
SplineSet
100 462 m 0xbc
 100 710 195 965 577 965 c 0
 646 965 722 956 787 946 c 1
 786 961 785 978 784 995 c 2
 784 1043 l 2
 784 1048 784 1052 784 1059 c 0
 784 1069 784 1077 784 1083 c 2
 784 1306 l 1
 610 1330 l 1
 610 1421 l 1
 1009 1421 l 1
 1009 114 l 1
 1125 90 l 1
 1125 0 l 1
 808 0 l 1x7c
 799 51 l 1
 712 0 618 -20 527 -20 c 0
 264 -20 100 114 100 462 c 0xbc
588 833 m 0
 433 833 330 739 330 463 c 0
 330 213 432 134 588 134 c 0xbc
 664 134 735 147 784 163 c 1
 784 821 l 1
 727 828 650 833 588 833 c 0
EndSplineSet
EndChar

StartChar: e
Encoding: 101 101 69
Width: 1062
Flags: W
HStem: -20 154<443.289 834.24> 448 130<333 735> 835 130<416.595 673.452>
VStem: 101 230<246.991 448 578 732.465> 735 224<578 770.545>
LayerCount: 2
Fore
SplineSet
333 578 m 1
 735 578 l 1
 732 743 689 835 551 835 c 0
 384 835 337 710 333 578 c 1
922 68 m 1
 810 -5 666 -20 580 -20 c 0
 190 -20 101 194 101 477 c 0
 101 902 360 965 551 965 c 0
 800 965 959 851 959 550 c 2
 959 448 l 1
 331 448 l 1
 332 256 393 134 637 134 c 0
 733 134 845 152 892 162 c 2
 922 169 l 1
 922 68 l 1
EndSplineSet
EndChar

StartChar: f
Encoding: 102 102 70
Width: 940
Flags: W
HStem: 0 90<129 193.281 640.232 737> 806 139<521 780> 806 85<106 153.397> 1312 130<553.579 690.753>
VStem: 268 253<122 806 945 1225.57>
LayerCount: 2
Fore
SplineSet
657 1442 m 0xb8
 724 1442 776 1429 825 1415 c 1
 825 1168 l 1
 734 1168 l 1
 686 1299 l 1
 674 1305 657 1312 624 1312 c 0
 565 1312 526 1282 521 1071 c 2
 518 945 l 1
 780 945 l 1xd8
 785 806 l 1xb8
 521 806 l 1xd8
 521 122 l 1
 737 91 l 1
 737 0 l 1
 129 0 l 1
 129 90 l 1
 268 121 l 1
 268 806 l 1
 106 806 l 1
 106 891 l 1
 268 940 l 1
 268 985 l 2
 268 1366 505 1442 657 1442 c 0xb8
EndSplineSet
EndChar

StartChar: g
Encoding: 103 103 71
Width: 1195
Flags: W
HStem: -442 130<335.097 782.74> -6 208<349.112 878.127> 290 126<412.89 698.206> 839 126<415.351 703.205>
VStem: 104 191<-272.239 -70.5874> 137 225<467.713 789.05> 752 234<469.989 789.18> 895 206<-216.925 -21.1917>
LayerCount: 2
Fore
SplineSet
927 843 m 1xf4
 975 779 986 695 986 631 c 0xf6
 986 362 772 290 555 290 c 0
 498 290 440 296 402 302 c 1
 348 220 l 1
 364 211 412 202 460 202 c 2
 768 202 l 2
 1064 202 1101 25 1101 -71 c 0
 1101 -221 1002 -442 541 -442 c 0
 165 -442 104 -291 104 -190 c 0xf9
 104 -102 169 -37 248 21 c 1
 199 48 137 101 137 183 c 2
 137 192 l 1
 280 347 l 1
 185 401 137 498 137 632 c 0
 137 864 308 965 564 965 c 0
 633 965 721 951 766 940 c 1
 1005 1057 l 1
 1066 982 l 1
 927 843 l 1xf4
541 -312 m 0
 844 -312 895 -186 895 -102 c 0
 895 -25 839 -6 771 -6 c 2
 377 -6 l 1
 337 -42 295 -109 295 -176 c 0xf9
 295 -258 341 -312 541 -312 c 0
362 630 m 0xf6
 362 455 440 416 558 416 c 0
 674 416 752 456 752 630 c 0
 752 769 708 839 560 839 c 0
 404 839 362 765 362 630 c 0xf6
EndSplineSet
EndChar

StartChar: h
Encoding: 104 104 72
Width: 1205
Flags: W
HStem: 0 90<83 154.083 469.139 545 684 758.667 1070.9 1139> 798 167<516.14 780.797> 1330 91<62 145.627>
VStem: 202 216<114 782.468 882.515 1306> 809 216<114 771.12>
LayerCount: 2
Fore
SplineSet
659 798 m 0
 616 798 520 795 418 775 c 1
 418 114 l 1
 545 91 l 1
 545 0 l 1
 83 0 l 1
 83 90 l 1
 202 114 l 1
 202 1306 l 1
 62 1330 l 1
 62 1421 l 1
 418 1421 l 1
 418 954 l 1
 416 914 l 2
 416 903 416 893 415 882 c 1
 499 923 660 965 754 965 c 0
 937 965 1025 856 1025 679 c 2
 1025 114 l 1
 1139 90 l 1
 1139 0 l 1
 684 0 l 1
 684 90 l 1
 809 114 l 1
 809 661 l 2
 809 771 746 798 659 798 c 0
EndSplineSet
EndChar

StartChar: i
Encoding: 105 105 73
Width: 728
Flags: W
HStem: 0 91<112 207.573 552.829 649> 849 91<139 221.899> 1089 267<267.111 462.811>
VStem: 231 267<1124.44 1320.08> 272 216<115 826>
LayerCount: 2
Fore
SplineSet
364 1356 m 0xf0
 443 1356 498 1291 498 1222 c 0
 498 1144 432 1089 364 1089 c 0
 295 1089 231 1145 231 1222 c 0
 231 1299 295 1356 364 1356 c 0xf0
488 940 m 1xe8
 488 115 l 1
 649 91 l 1
 649 0 l 1
 112 0 l 1
 112 91 l 1
 272 115 l 1
 272 826 l 1
 139 849 l 1
 139 940 l 1
 488 940 l 1xe8
EndSplineSet
EndChar

StartChar: j
Encoding: 106 106 74
Width: 612
Flags: W
HStem: -436 130<86.239 214.844> 849 91<103 187.224> 1089 267<237.813 434.562>
VStem: -32 92<-228.321 -169> 203 267<1123.71 1321.3> 244 216<-264.445 825>
LayerCount: 2
Fore
SplineSet
337 1356 m 0xf8
 415 1356 470 1290 470 1222 c 0
 470 1153 414 1089 337 1089 c 0
 263 1089 203 1149 203 1222 c 0
 203 1290 256 1356 337 1356 c 0xf8
138 -436 m 0
 80 -436 42 -429 -32 -413 c 1
 -32 -169 l 1
 60 -169 l 1
 89 -289 l 1
 99 -296 118 -306 150 -306 c 0
 214 -306 244 -230 244 -65 c 2
 244 825 l 1
 103 849 l 1
 103 940 l 1
 460 940 l 1
 460 -14 l 2xf4
 460 -380 265 -436 138 -436 c 0
EndSplineSet
EndChar

StartChar: k
Encoding: 107 107 75
Width: 1236
Flags: W
HStem: 0 90<83 149.124 464.656 518 713 761.01 1085.77 1148> 851 89<702 756.613 1012.45 1087> 1330 91<63 146.029>
VStem: 202 216<115 355 492 1306>
LayerCount: 2
Fore
SplineSet
418 492 m 1
 782 830 l 1
 702 851 l 1
 702 940 l 1
 1087 940 l 1
 1087 851 l 1
 957 826 l 1
 707 587 l 1
 1036 114 l 1
 1148 90 l 1
 1148 0 l 1
 713 0 l 1
 713 89 l 1
 785 110 l 1
 512 459 l 1
 418 355 l 1
 418 115 l 1
 518 90 l 1
 518 0 l 1
 83 0 l 1
 83 90 l 1
 202 114 l 1
 202 1306 l 1
 63 1330 l 1
 63 1421 l 1
 418 1421 l 1
 418 492 l 1
EndSplineSet
EndChar

StartChar: l
Encoding: 108 108 76
Width: 711
Flags: W
HStem: 0 91<91 186.573 535.676 628> 1329 92<91 186.573>
VStem: 251 216<116 1305>
LayerCount: 2
Fore
SplineSet
467 1421 m 1
 467 116 l 1
 628 91 l 1
 628 0 l 1
 91 0 l 1
 91 91 l 1
 251 115 l 1
 251 1305 l 1
 91 1329 l 1
 91 1421 l 1
 467 1421 l 1
EndSplineSet
EndChar

StartChar: m
Encoding: 109 109 77
Width: 1833
Flags: W
HStem: 0 91<101 169.999 495.245 577 686 766.596 1100.24 1182 1292 1373.18 1698.84 1769> 792 173<535.938 797.63 1139.26 1411.82> 850 90<101 172.083>
VStem: 220 216<114 769> 825 216<114 763.638> 1432 216<114 766.843>
LayerCount: 2
Fore
SplineSet
825 655 m 2xdc
 825 741 783 792 675 792 c 0xdc
 562 792 477 777 460 774 c 2
 436 769 l 1
 436 114 l 1
 577 91 l 1
 577 0 l 1
 101 0 l 1
 101 90 l 1
 220 114 l 1
 220 826 l 1
 101 850 l 1
 101 940 l 1
 424 940 l 1xbc
 430 878 l 1
 491 909 646 965 766 965 c 0
 804 965 926 959 990 864 c 1
 1085 913 1274 965 1383 965 c 0
 1537 965 1648 886 1648 679 c 2
 1648 114 l 1
 1769 90 l 1
 1769 0 l 1
 1292 0 l 1
 1292 91 l 1
 1432 114 l 1
 1432 655 l 2
 1432 768 1382 792 1308 792 c 0
 1257 792 1112 780 1056 770 c 1
 1030 765 l 1
 1037 736 1041 704 1041 672 c 2
 1041 114 l 1
 1182 91 l 1
 1182 0 l 1
 686 0 l 1
 686 91 l 1
 825 114 l 1
 825 655 l 2xdc
EndSplineSet
EndChar

StartChar: n
Encoding: 110 110 78
Width: 1214
Flags: W
HStem: 0 90<102 169.499 482.139 558 693 767.667 1079.9 1148> 798 167<531.013 788.78> 850 90<102 169.499>
VStem: 215 216<114 775> 818 216<114 764.031>
LayerCount: 2
Fore
SplineSet
818 655 m 2xd8
 818 760 762 798 668 798 c 0xd8
 613 798 514 791 455 780 c 2
 431 775 l 1
 431 114 l 1
 558 91 l 1
 558 0 l 1
 102 0 l 1
 102 90 l 1
 215 114 l 1
 215 826 l 1
 102 850 l 1
 102 940 l 1
 417 940 l 1xb8
 424 879 l 1
 509 922 666 965 763 965 c 0
 946 965 1034 856 1034 679 c 2
 1034 114 l 1
 1148 90 l 1
 1148 0 l 1
 693 0 l 1
 693 90 l 1
 818 114 l 1
 818 655 l 2xd8
EndSplineSet
EndChar

StartChar: o
Encoding: 111 111 79
Width: 1146
Flags: W
HStem: -20 129<424.29 727.911> 835 130<417.712 726.98>
VStem: 95 230<227.337 721.356> 833 230<229.015 717.37>
LayerCount: 2
Fore
SplineSet
581 965 m 0
 875 965 1063 828 1063 475 c 0
 1063 84 836 -20 572 -20 c 0
 190 -20 95 230 95 475 c 0
 95 723 192 965 581 965 c 0
572 109 m 0
 730 109 833 186 833 475 c 0
 833 688 782 835 572 835 c 0
 373 835 325 706 325 475 c 0
 325 244 373 109 572 109 c 0
EndSplineSet
EndChar

StartChar: p
Encoding: 112 112 80
Width: 1170
Flags: W
HStem: -436 92<72 143.083 496.648 597> -20 129<416.622 747.761> 810 155<426.772 753.867> 850 90<84 147.915>
VStem: 191 224<-318 -6.94336 116.179 797.888> 853 230<236.189 700.197>
LayerCount: 2
Fore
SplineSet
412 -6 m 1xec
 414 -26 415 -54 415 -86 c 2
 415 -318 l 1
 597 -342 l 1
 597 -436 l 1
 72 -436 l 1
 72 -344 l 1
 191 -320 l 1
 191 826 l 1
 84 850 l 1
 84 940 l 1
 397 940 l 1xdc
 398 907 l 1
 473 946 574 965 661 965 c 0
 971 965 1083 744 1083 481 c 0
 1083 197 952 -20 619 -20 c 0
 540 -20 469 -14 412 -6 c 1xec
604 109 m 0
 752 109 853 202 853 480 c 0
 853 731 753 810 599 810 c 0xec
 518 810 449 798 407 786 c 1
 415 121 l 1
 491 111 565 109 604 109 c 0
EndSplineSet
EndChar

StartChar: q
Encoding: 113 113 81
Width: 1194
Flags: W
HStem: -436 93<641 720.46 1051.7 1112> -20 154<431.955 762.388> 833 132<440.222 782.447>
VStem: 99 230<244.678 703.073> 784 224<-319 35.5879 148.142 825.554>
LayerCount: 2
Fore
SplineSet
572 965 m 0
 652 965 743 953 815 940 c 1
 907 985 l 1
 1008 985 l 1
 1008 -320 l 1
 1112 -344 l 1
 1112 -436 l 1
 641 -436 l 1
 641 -343 l 1
 784 -319 l 1
 784 -79 l 2
 784 -31 786 7 789 37 c 1
 721 3 633 -20 526 -20 c 0
 263 -20 99 119 99 467 c 0
 99 760 235 965 572 965 c 0
587 833 m 0
 483 833 329 793 329 468 c 0
 329 216 431 134 587 134 c 0
 665 134 743 146 784 158 c 1
 784 821 l 1
 727 828 650 833 587 833 c 0
EndSplineSet
EndChar

StartChar: r
Encoding: 114 114 82
Width: 935
Flags: W
HStem: 0 90<101 172.083 529.445 647> 781 184<540.552 683> 850 90<101 172.083>
VStem: 220 222<115 753.261>
LayerCount: 2
Fore
SplineSet
434 892 m 1xb0
 554 925 699 965 784 965 c 2
 824 965 l 1
 824 677 l 1
 741 677 l 1
 683 781 l 1xd0
 619 779 522 764 442 743 c 1
 442 115 l 1
 647 91 l 1
 647 0 l 1
 101 0 l 1
 101 90 l 1
 220 114 l 1
 220 826 l 1
 101 850 l 1
 101 940 l 1
 423 940 l 1
 434 892 l 1xb0
EndSplineSet
EndChar

StartChar: s
Encoding: 115 115 83
Width: 975
Flags: W
HStem: -20 129<292.083 632.243> 835 130<355.01 665.054>
VStem: 130 199<640.948 806.162> 665 204<145.504 329.024>
LayerCount: 2
Fore
SplineSet
461 -20 m 0
 411 -20 253 -13 130 35 c 1
 130 308 l 1
 219 308 l 1
 272 167 l 1
 292 150 348 109 464 109 c 0
 623 109 665 162 665 242 c 0
 665 272 663 342 505 383 c 1
 393 412 l 1
 253 454 130 512 130 689 c 0
 130 877 285 965 491 965 c 0
 541 965 628 964 781 934 c 2
 801 930 l 1
 801 679 l 1
 712 679 l 1
 665 798 l 1
 627 827 543 835 494 835 c 0
 358 835 329 774 329 719 c 0
 329 685 336 631 490 589 c 1
 603 560 l 1
 743 516 869 453 869 272 c 0
 869 158 821 -20 461 -20 c 0
EndSplineSet
EndChar

StartChar: t
Encoding: 116 116 84
Width: 795
Flags: W
HStem: -20 154<349.5 642.574> 806 134<434 649> 806 88<95 139.373>
VStem: 218 216<145.369 806>
LayerCount: 2
Fore
SplineSet
682 47 m 1xd0
 601 -7 494 -20 434 -20 c 0
 265 -20 218 96 218 208 c 2
 218 806 l 1
 95 806 l 1
 95 894 l 1xb0
 225 936 l 1
 330 1153 l 1
 434 1153 l 1
 434 940 l 1
 649 940 l 1
 649 806 l 1
 434 806 l 1
 434 233 l 2
 434 148 483 134 516 134 c 0
 543 134 585 137 652 150 c 2
 682 155 l 1
 682 47 l 1xd0
EndSplineSet
EndChar

StartChar: u
Encoding: 117 117 85
Width: 1216
Flags: W
HStem: -20 166<453.188 723.623> 0 90<1076.92 1148> 849 91<86 160.797 672 760.509>
VStem: 206 216<180.51 826> 814 215<161.049 826>
LayerCount: 2
Fore
SplineSet
483 -20 m 0xb8
 334 -20 206 43 206 265 c 2
 206 826 l 1
 86 849 l 1
 86 940 l 1
 422 940 l 1
 422 284 l 2
 422 175 490 146 591 146 c 0xb8
 679 146 752 155 814 170 c 1
 814 826 l 1
 672 849 l 1
 672 940 l 1
 1029 940 l 1
 1029 114 l 1
 1148 90 l 1
 1148 0 l 1
 827 0 l 1x78
 819 62 l 1
 732 21 593 -20 483 -20 c 0xb8
EndSplineSet
EndChar

StartChar: v
Encoding: 118 118 86
Width: 1284
Flags: W
HStem: -20 21G<552.769 706.399> 849 91<69 130.525 477.292 557 795 878.029 1123.47 1193>
LayerCount: 2
Fore
SplineSet
1193 849 m 1
 1096 829 l 1
 697 -20 l 1
 562 -20 l 1
 172 825 l 1
 69 849 l 1
 69 940 l 1
 557 940 l 1
 557 849 l 1
 418 824 l 1
 683 260 l 1
 934 825 l 1
 795 849 l 1
 795 940 l 1
 1193 940 l 1
 1193 849 l 1
EndSplineSet
EndChar

StartChar: w
Encoding: 119 119 87
Width: 1730
Flags: W
HStem: 850 90<69 137.239 489.417 568 1231 1314.72 1563.91 1639>
LayerCount: 2
Fore
SplineSet
1639 850 m 1
 1529 829 l 1
 1211 -20 l 1
 1089 -20 l 1
 857 553 l 1
 628 -20 l 1
 515 -20 l 1
 188 825 l 1
 69 850 l 1
 69 940 l 1
 568 940 l 1
 568 850 l 1
 420 823 l 1
 614 282 l 1
 840 846 l 1
 969 846 l 1
 1193 280 l 1
 1377 825 l 1
 1231 850 l 1
 1231 940 l 1
 1639 940 l 1
 1639 850 l 1
EndSplineSet
EndChar

StartChar: x
Encoding: 120 120 88
Width: 1284
Flags: W
HStem: 0 91<103 204.195 404.188 491 708 786.131 1102.08 1184> 850 90<138 204.718 548.891 614 749 820.68 1059.46 1137>
LayerCount: 2
Fore
SplineSet
771 527 m 1
 1064 112 l 1
 1184 91 l 1
 1184 0 l 1
 708 0 l 1
 708 91 l 1
 817 111 l 1
 619 383 l 1
 382 109 l 1
 491 91 l 1
 491 0 l 1
 103 0 l 1
 103 92 l 1
 223 108 l 1
 523 470 l 1
 259 824 l 1
 138 850 l 1
 138 940 l 1
 614 940 l 1
 614 850 l 1
 505 826 l 1
 665 616 l 1
 859 828 l 1
 749 850 l 1
 749 940 l 1
 1137 940 l 1
 1137 850 l 1
 1018 828 l 1
 771 527 l 1
EndSplineSet
EndChar

StartChar: y
Encoding: 121 121 89
Width: 1253
Flags: W
HStem: -442 152<212.28 386.357> 849 91<71 132.525 477.292 557 762 844.432 1086.74 1162>
LayerCount: 2
Fore
SplineSet
270 -442 m 0
 193 -442 153 -433 91 -419 c 1
 91 -171 l 1
 181 -171 l 1
 217 -276 l 1
 232 -285 253 -290 282 -290 c 0
 369 -290 434 -220 501 -48 c 1
 523 14 l 1
 174 825 l 1
 71 849 l 1
 71 940 l 1
 557 940 l 1
 557 849 l 1
 418 824 l 1
 664 256 l 1
 900 825 l 1
 762 849 l 1
 762 940 l 1
 1162 940 l 1
 1162 849 l 1
 1057 829 l 1
 674 -43 l 1
 559 -262 471 -442 270 -442 c 0
EndSplineSet
EndChar

StartChar: z
Encoding: 122 122 90
Width: 1103
Flags: W
HStem: 0 130<387 846.182> 810 130<259.011 627>
VStem: 133 92<640 702.557> 902 93<319.311 374>
LayerCount: 2
Fore
SplineSet
96 0 m 1
 96 73 l 1
 627 810 l 1
 426 810 l 2
 336 810 279 795 258 784 c 1
 225 640 l 1
 133 640 l 1
 133 940 l 1
 927 940 l 1
 927 863 l 1
 387 130 l 1
 649 130 l 2
 721 130 810 146 848 168 c 1
 902 374 l 1
 995 374 l 1
 966 0 l 1
 96 0 l 1
EndSplineSet
EndChar

StartChar: braceleft
Encoding: 123 123 91
Width: 749
Flags: W
HStem: -281 92<496.076 674> 463 91<75 224.592> 1202 92<500.406 674>
VStem: 268 199<-163.385 418.875 596.635 1177.01>
CounterMasks: 1 e0
LayerCount: 2
Fore
SplineSet
594 -189 m 2
 674 -189 l 1
 674 -281 l 1
 528 -281 l 2
 352 -281 268 -161 268 8 c 2
 268 274 l 2
 268 417 201 463 100 463 c 2
 75 463 l 1
 75 554 l 1
 100 554 l 2
 201 554 268 598 268 741 c 2
 268 1006 l 2
 268 1149 325 1294 528 1294 c 2
 674 1294 l 1
 674 1202 l 1
 594 1202 l 2
 518 1202 467 1169 467 1033 c 2
 467 736 l 2
 467 634 418 551 338 509 c 1
 418 467 467 387 467 280 c 2
 467 -20 l 2
 467 -156 518 -189 594 -189 c 2
EndSplineSet
EndChar

StartChar: bar
Encoding: 124 124 92
Width: 341
Flags: W
VStem: 75 191<-328 1183>
LayerCount: 2
Fore
SplineSet
75 -328 m 1
 75 1183 l 1
 266 1183 l 1
 266 -328 l 1
 75 -328 l 1
EndSplineSet
EndChar

StartChar: braceright
Encoding: 125 125 93
Width: 749
Flags: W
HStem: -281 92<75 253.748> 463 91<524.408 674> 1202 92<75 249.587>
VStem: 282 199<-162.949 418.875 597.021 1177.01>
CounterMasks: 1 e0
LayerCount: 2
Fore
SplineSet
222 -281 m 2
 75 -281 l 1
 75 -189 l 1
 155 -189 l 2
 231 -189 282 -156 282 -20 c 2
 282 280 l 2
 282 387 331 467 411 509 c 1
 331 551 282 634 282 736 c 2
 282 1033 l 2
 282 1169 231 1202 155 1202 c 2
 75 1202 l 1
 75 1294 l 1
 222 1294 l 2
 425 1294 481 1149 481 1006 c 2
 481 741 l 2
 481 599 548 554 649 554 c 2
 674 554 l 1
 674 463 l 1
 649 463 l 2
 548 463 481 418 481 274 c 2
 481 8 l 2
 481 -160 397 -281 222 -281 c 2
EndSplineSet
EndChar

StartChar: asciitilde
Encoding: 126 126 94
Width: 1095
Flags: W
HStem: 427 142<655.68 828.81> 644 143<254.164 438.683>
VStem: 75 141<427 605.027>
LayerCount: 2
Fore
SplineSet
750 427 m 0
 575 427 449 644 342 644 c 0
 241 644 216 546 216 452 c 2
 216 427 l 1
 75 427 l 1
 75 452 l 2
 75 622 141 787 342 787 c 0
 393 787 462 773 583 672 c 1
 647 620 l 2
 704 575 732 569 750 569 c 0
 819 569 853 612 875 766 c 2
 878 787 l 1
 1020 787 l 1
 1017 759 l 2
 997 603 950 427 750 427 c 0
EndSplineSet
EndChar

StartChar: sterling
Encoding: 163 163 95
Width: 945
Flags: W
HStem: -25 152<124 139 343 836> 452 147<140 227 405 666> 971 137<520 699.337>
VStem: 199 190<603.488 923.775> 227 162<599 836.942> 259 146<195.941 452> 765 105<767 828.167>
LayerCount: 2
Fore
SplineSet
824 142 m 2xe6
 851 142 l 1
 836 -25 l 1
 75 -25 l 1
 124 127 l 1
 139 130 l 2
 200 139 259 257 259 314 c 0xe6
 259 328 251 392 249 452 c 1
 99 452 l 1
 140 599 l 1
 227 599 l 1xea
 209 695 199 775 199 840 c 0
 199 999 345 1108 547 1108 c 0
 630 1108 742 1089 853 1053 c 2
 870 1047 l 1
 870 767 l 1
 765 767 l 1
 735 895 l 1
 702 935 641 971 579 971 c 2
 570 971 l 1
 541 969 530 968 525 968 c 2
 520 967 l 2
 407 943 387 871 387 811 c 0
 387 797 388 782 390 770 c 2
 390 768 l 1
 390 766 l 2
 390 746 389 673 389 623 c 0xf2
 389 613 389 605 389 599 c 1xea
 699 599 l 1
 666 452 l 1
 405 452 l 1
 401 351 379 216 343 137 c 1
 475 138 811 142 824 142 c 2xe6
EndSplineSet
EndChar

StartChar: sheva
Encoding: 1456 1456 126
Width: 0
VWidth: 1761
GlyphClass: 4
Flags: W
AnchorPoint: "M2V" -220 0 basemark 0
AnchorPoint: "N" -1.30859 0 mark 0
LayerCount: 2
Fore
SplineSet
-30 -379 m 2
 -20 -368 -10 -363 -0 -363 c 1
 10 -363 20 -368 30 -378 c 2
 94 -441 l 2
 113 -460 112 -480 94 -499 c 2
 29 -564 l 2
 10 -582 -10 -583 -29 -564 c 2
 -92 -500 l 2
 -112 -480 -112 -460 -94 -441 c 2
 -30 -379 l 2
-30 -122 m 2
 -20 -111 -10 -106 -0 -106 c 1
 10 -106 20 -111 30 -121 c 2
 94 -184 l 2
 113 -203 112 -223 94 -242 c 2
 29 -307 l 2
 10 -325 -10 -326 -29 -307 c 2
 -92 -243 l 2
 -112 -223 -112 -203 -94 -184 c 2
 -30 -122 l 2
EndSplineSet
MultipleSubs2: "meteg-tenua-stage2" sheva meteg
LCarets2: 1 0 
Ligature2: "meteg-tenua-stage1" meteg sheva
EndChar

StartChar: hatafsegol
Encoding: 1457 1457 127
Width: 0
VWidth: 1761
GlyphClass: 4
Flags: W
AnchorPoint: "VR" -95.3086 0 mark 0
AnchorPoint: "M2V" -416.309 0 basemark 0
AnchorPoint: "H" -0.308594 0 mark 0
LayerCount: 2
Fore
SplineSet
-163 -365 m 2
 -153 -355 -144 -350 -134 -350 c 1
 -125 -350 -115 -355 -106 -364 c 2
 -45 -424 l 2
 -27 -442 -28 -461 -45 -479 c 2
 -107 -541 l 2
 -125 -558 -144 -559 -162 -541 c 2
 -222 -480 l 2
 -241 -461 -241 -442 -224 -424 c 2
 -163 -365 l 2
-14 -121 m 2
 -5 -111 4 -106 14 -106 c 1
 24 -106 33 -111 42 -120 c 2
 104 -180 l 2
 123 -196 122 -219 104 -235 c 2
 42 -297 l 2
 24 -315 4 -315 -14 -297 c 2
 -73 -236 l 2
 -92 -217 -92 -198 -75 -180 c 2
 -14 -121 l 2
-311 -121 m 2
 -301 -111 -292 -106 -282 -106 c 1
 -273 -106 -263 -111 -254 -120 c 2
 -193 -180 l 2
 -175 -198 -176 -217 -193 -235 c 2
 -255 -297 l 2
 -273 -314 -292 -315 -310 -297 c 2
 -370 -236 l 2
 -389 -217 -389 -198 -372 -180 c 2
 -311 -121 l 2
252 -365 m 2
 261 -355 270 -350 280 -350 c 1
 290 -350 299 -355 308 -364 c 2
 369 -424 l 2
 387 -442 386 -461 369 -479 c 2
 308 -541 l 2
 290 -558 270 -559 252 -541 c 2
 193 -480 l 2
 174 -461 174 -442 191 -424 c 2
 252 -365 l 2
252 -121 m 2
 261 -111 270 -106 280 -106 c 1
 290 -106 299 -111 308 -120 c 2
 369 -180 l 2
 387 -198 386 -217 369 -235 c 2
 308 -297 l 2
 290 -314 270 -315 252 -297 c 2
 193 -236 l 2
 174 -217 174 -198 191 -180 c 2
 252 -121 l 2
EndSplineSet
LCarets2: 1 0 
MultipleSubs2: "meteg-tenua-stage2" hatafsegol meteg
Ligature2: "meteg-tenua-stage1" meteg hatafsegol
EndChar

StartChar: hatafpatah
Encoding: 1458 1458 128
Width: 0
VWidth: 1761
GlyphClass: 4
Flags: W
HStem: -266 139<-378.877 46.0808>
AnchorPoint: "VR" -101.94 0 mark 0
AnchorPoint: "M2V" -440 0 basemark 0
AnchorPoint: "H" -6.94043 0 mark 0
LayerCount: 2
Fore
SplineSet
-371 -266 m 2
 -386 -266 -396 -254 -396 -241 c 0
 -396 -239 -398 -236 -396 -231 c 2
 -373 -150 l 2
 -371 -145 -367 -133 -355 -127 c 0
 -352 -125 -347 -127 -342 -127 c 2
 37 -127 l 2
 53 -127 64 -137 64 -152 c 0
 64 -155 64 -157 62 -161 c 2
 41 -242 l 1
 36 -257 24 -266 8 -266 c 2
 -371 -266 l 2
260 -379 m 2
 270 -368 280 -363 290 -363 c 1
 300 -363 310 -368 320 -378 c 2
 384 -441 l 2
 403 -460 402 -480 384 -499 c 2
 319 -564 l 2
 300 -582 280 -583 261 -564 c 2
 198 -500 l 2
 178 -480 178 -460 196 -441 c 2
 260 -379 l 2
260 -122 m 2
 270 -111 280 -106 290 -106 c 1
 300 -106 310 -111 320 -121 c 2
 384 -184 l 2
 403 -203 402 -223 384 -242 c 2
 319 -307 l 2
 300 -325 280 -326 261 -307 c 2
 198 -243 l 2
 178 -223 178 -203 196 -184 c 2
 260 -122 l 2
EndSplineSet
LCarets2: 1 0 
MultipleSubs2: "meteg-tenua-stage2" hatafpatah meteg
Ligature2: "meteg-tenua-stage1" meteg hatafpatah
EndChar

StartChar: hatafqamats
Encoding: 1459 1459 129
Width: 0
VWidth: 1761
GlyphClass: 4
Flags: W
HStem: -265 139<-324.266 -204 -86 31.0808>
VStem: -342 391<-263.359 -127.231> -204 118<-461 -265>
AnchorPoint: "VR" -101.244 0 mark 0
AnchorPoint: "M2V" -406.494 0 basemark 0
AnchorPoint: "H" -6.24414 0 mark 0
LayerCount: 2
Fore
SplineSet
-86 -265 m 1xa0
 -86 -436 l 2
 -86 -450 -87 -461 -103 -461 c 2
 -189 -461 l 2
 -203 -461 -204 -451 -204 -436 c 2
 -204 -265 l 1xa0
 -317 -265 l 2
 -332 -265 -342 -256 -342 -243 c 0
 -342 -241 -344 -238 -342 -233 c 2
 -319 -152 l 2
 -317 -147 -313 -135 -301 -129 c 0
 -298 -127 -293 -126 -288 -126 c 2
 22 -126 l 2
 38 -126 49 -136 49 -151 c 0xc0
 49 -154 49 -156 47 -160 c 2
 26 -241 l 1
 21 -256 9 -265 -7 -265 c 2
 -86 -265 l 1xa0
206 -379 m 2
 216 -368 226 -363 236 -363 c 1
 246 -363 256 -368 266 -378 c 2
 330 -441 l 2
 349 -460 348 -480 330 -499 c 2
 265 -564 l 2
 246 -582 226 -583 207 -564 c 2
 144 -500 l 2
 124 -480 124 -460 142 -441 c 2
 206 -379 l 2
206 -122 m 2
 216 -111 226 -106 236 -106 c 1
 246 -106 256 -111 266 -121 c 2
 330 -184 l 2
 349 -203 348 -223 330 -242 c 2
 265 -307 l 2
 246 -325 226 -326 207 -307 c 2
 144 -243 l 2
 124 -223 124 -203 142 -184 c 2
 206 -122 l 2
EndSplineSet
LCarets2: 1 0 
MultipleSubs2: "meteg-tenua-stage2" hatafqamats meteg
Ligature2: "meteg-tenua-stage1" meteg hatafqamats
EndChar

StartChar: hiriq
Encoding: 1460 1460 130
Width: 0
VWidth: 1761
GlyphClass: 4
Flags: W
AnchorPoint: "J1" 285.691 0 mark 0
AnchorPoint: "M2V" -220 0.333008 basemark 0
AnchorPoint: "N" -0.308594 0.333008 mark 0
LayerCount: 2
Fore
SplineSet
-30 -122 m 2
 -20 -111 -10 -106 -0 -106 c 1
 10 -106 19 -110 30 -121 c 2
 94 -184 l 2
 113 -203 112 -223 94 -242 c 2
 29 -307 l 2
 10 -325 -10 -326 -29 -307 c 2
 -92 -243 l 2
 -112 -223 -112 -203 -94 -184 c 2
 -30 -122 l 2
EndSplineSet
LCarets2: 1 0 
MultipleSubs2: "meteg-tenua-stage2" hiriq meteg
Ligature2: "meteg-tenua-stage1" meteg hiriq
EndChar

StartChar: tsere
Encoding: 1461 1461 131
Width: 0
VWidth: 1761
GlyphClass: 4
Flags: W
AnchorPoint: "M2V" -315.309 0 basemark 0
AnchorPoint: "W" -0.308594 0 mark 0
LayerCount: 2
Fore
SplineSet
96 -122 m 2
 106 -111 116 -106 126 -106 c 1
 136 -106 146 -111 156 -121 c 2
 220 -184 l 2
 239 -203 238 -223 220 -242 c 2
 155 -307 l 2
 136 -325 116 -326 97 -307 c 2
 34 -243 l 2
 14 -223 14 -203 32 -184 c 2
 96 -122 l 2
-156 -122 m 2
 -146 -111 -136 -106 -126 -106 c 1
 -116 -106 -106 -111 -96 -121 c 2
 -32 -184 l 2
 -13 -203 -14 -223 -32 -242 c 2
 -97 -307 l 2
 -116 -325 -136 -326 -155 -307 c 2
 -218 -243 l 2
 -238 -223 -238 -203 -220 -184 c 2
 -156 -122 l 2
EndSplineSet
LCarets2: 1 0 
MultipleSubs2: "meteg-tenua-stage2" tsere meteg
Ligature2: "meteg-tenua-stage1" meteg tsere
EndChar

StartChar: segol
Encoding: 1462 1462 132
Width: 0
VWidth: 1761
GlyphClass: 4
Flags: W
AnchorPoint: "M2V" -319.309 0 basemark 0
AnchorPoint: "W" -0.308594 0 mark 0
LayerCount: 2
Fore
SplineSet
-30 -379 m 2
 -20 -368 -10 -363 -0 -363 c 1
 10 -363 20 -368 30 -378 c 2
 94 -441 l 2
 113 -460 112 -480 94 -499 c 2
 29 -564 l 2
 10 -582 -10 -583 -29 -564 c 2
 -92 -500 l 2
 -112 -480 -112 -460 -94 -441 c 2
 -30 -379 l 2
126 -122 m 2
 136 -111 146 -106 156 -106 c 1
 166 -106 176 -111 186 -121 c 2
 250 -184 l 2
 269 -203 268 -223 250 -242 c 2
 185 -307 l 2
 166 -325 146 -326 127 -307 c 2
 64 -243 l 2
 44 -223 44 -203 62 -184 c 2
 126 -122 l 2
-186 -122 m 2
 -176 -111 -166 -106 -156 -106 c 1
 -146 -106 -136 -111 -126 -121 c 2
 -62 -184 l 2
 -43 -203 -44 -223 -62 -242 c 2
 -127 -307 l 2
 -146 -325 -166 -326 -185 -307 c 2
 -248 -243 l 2
 -268 -223 -268 -203 -250 -184 c 2
 -186 -122 l 2
EndSplineSet
LCarets2: 1 0 
MultipleSubs2: "meteg-tenua-stage2" segol meteg
Ligature2: "meteg-tenua-stage1" meteg segol
EndChar

StartChar: patah
Encoding: 1463 1463 133
Width: 0
VWidth: 1761
GlyphClass: 4
Flags: W
HStem: -245 139<-177.266 178.081>
VStem: -195 391
AnchorPoint: "M2V" -281.056 0 basemark 0
AnchorPoint: "W" 0.944336 0 mark 0
LayerCount: 2
Fore
SplineSet
-170 -245 m 2
 -185 -245 -195 -236 -195 -223 c 0
 -195 -221 -197 -218 -195 -213 c 2
 -172 -132 l 2
 -170 -127 -166 -115 -154 -109 c 0
 -151 -107 -146 -106 -141 -106 c 2
 169 -106 l 2
 185 -106 196 -116 196 -131 c 0
 196 -134 196 -136 194 -140 c 2
 173 -221 l 1
 168 -236 156 -245 140 -245 c 2
 -170 -245 l 2
EndSplineSet
LCarets2: 1 0 
MultipleSubs2: "meteg-tenua-stage2" patah meteg
Ligature2: "meteg-tenua-stage1" meteg patah
EndChar

StartChar: qamats
Encoding: 1464 1464 134
Width: 0
VWidth: 1761
GlyphClass: 4
Flags: W
HStem: -245 139<-177.266 -57 61 178.081>
VStem: -195 391<-243.359 -107.231> -57 118<-441 -245>
AnchorPoint: "M2V" -299.056 0 basemark 0
AnchorPoint: "W" 0.944336 0 mark 0
LayerCount: 2
Fore
SplineSet
61 -245 m 1xa0
 61 -416 l 2
 61 -430 60 -441 44 -441 c 2
 -42 -441 l 2
 -56 -441 -57 -431 -57 -416 c 2
 -57 -245 l 1xa0
 -170 -245 l 2
 -185 -245 -195 -236 -195 -223 c 0
 -195 -221 -197 -218 -195 -213 c 2
 -172 -132 l 2
 -170 -127 -166 -115 -154 -109 c 0
 -151 -107 -146 -106 -141 -106 c 1
 169 -106 l 1
 185 -106 196 -116 196 -131 c 0xc0
 196 -134 196 -136 194 -140 c 2
 173 -221 l 1
 168 -236 156 -245 140 -245 c 2
 61 -245 l 1xa0
EndSplineSet
LCarets2: 1 0 
MultipleSubs2: "meteg-tenua-stage2" qamats meteg
Ligature2: "meteg-tenua-stage1" meteg qamats
EndChar

StartChar: holam
Encoding: 1465 1465 135
Width: 0
VWidth: 1761
GlyphClass: 4
Flags: W
AnchorPoint: "Holam" -0.308594 0 mark 0
LayerCount: 2
Fore
SplineSet
-30 1432 m 2
 -20 1443 -10 1448 -0 1448 c 1
 10 1448 20 1443 30 1433 c 2
 94 1370 l 2
 113 1351 112 1331 94 1312 c 2
 29 1247 l 2
 10 1229 -10 1228 -29 1247 c 2
 -92 1311 l 2
 -112 1331 -112 1351 -94 1370 c 2
 -30 1432 l 2
EndSplineSet
EndChar

StartChar: qubuts
Encoding: 1467 1467 136
Width: 0
VWidth: 1761
GlyphClass: 4
Flags: W
AnchorPoint: "M2V" -310.309 0 basemark 0
AnchorPoint: "W" -143.309 0 mark 0
LayerCount: 2
Fore
SplineSet
144 -458 m 2
 154 -447 164 -442 174 -442 c 1
 184 -442 194 -447 204 -457 c 2
 268 -520 l 2
 287 -539 286 -559 268 -578 c 2
 203 -643 l 2
 184 -661 164 -662 145 -643 c 2
 82 -579 l 2
 62 -559 62 -539 80 -520 c 2
 144 -458 l 2
-30 -288 m 2
 -20 -277 -10 -272 -0 -272 c 1
 10 -272 20 -277 30 -287 c 2
 94 -350 l 2
 113 -369 112 -389 94 -408 c 2
 29 -473 l 2
 10 -491 -10 -492 -29 -473 c 2
 -92 -409 l 2
 -112 -389 -112 -369 -94 -350 c 2
 -30 -288 l 2
-204 -124 m 2
 -194 -113 -184 -108 -174 -108 c 1
 -164 -108 -154 -113 -144 -123 c 2
 -80 -186 l 2
 -61 -205 -62 -225 -80 -244 c 2
 -145 -309 l 2
 -164 -327 -184 -328 -203 -309 c 2
 -266 -245 l 2
 -286 -225 -286 -205 -268 -186 c 2
 -204 -124 l 2
EndSplineSet
LCarets2: 1 0 
MultipleSubs2: "meteg-tenua-stage2" qubuts meteg
Ligature2: "meteg-tenua-stage1" meteg qubuts
EndChar

StartChar: dagesh
Encoding: 1468 1468 137
Width: 0
VWidth: 1761
GlyphClass: 4
Flags: W
AnchorPoint: "D" 0 0 mark 0
LayerCount: 2
Fore
SplineSet
-30 616 m 2
 -20 627 -10 632 -0 632 c 1
 10 632 20 627 30 617 c 2
 94 554 l 2
 113 535 112 515 94 496 c 2
 29 431 l 2
 10 413 -10 412 -29 431 c 2
 -92 495 l 2
 -112 515 -112 535 -94 554 c 2
 -30 616 l 2
EndSplineSet
EndChar

StartChar: meteg
Encoding: 1469 1469 138
Width: 0
VWidth: 1761
GlyphClass: 4
Flags: W
HStem: -505 395
VStem: -70 140<-470.484 -145.219>
AnchorPoint: "M1" 0 -1 mark 0
AnchorPoint: "N" 0 0 mark 0
AnchorPoint: "M2V" 100 0 mark 0
LayerCount: 2
Fore
SplineSet
-70 -184 m 1
 -67 -176 -70 -171 -48 -159 c 1
 33 -110 l 2
 36 -108 41 -106 46 -106 c 0
 63 -106 70 -123 70 -134 c 2
 70 -433 l 1
 68 -445 60 -451 47 -458 c 2
 -33 -505 l 2
 -47 -514 -70 -505 -70 -478 c 2
 -70 -184 l 1
EndSplineSet
Ligature2: "'ccmp' Remove empty near meteg" empty meteg
Ligature2: "'ccmp' Remove empty near meteg" meteg empty
LCarets2: 1 0 
EndChar

StartChar: makaf
Encoding: 1470 1470 139
Width: 691
VWidth: 1761
Flags: W
HStem: 827 193<90.5781 597.571>
VStem: 62 567
LayerCount: 2
Fore
SplineSet
90 827 m 2
 64 827 55 845 62 866 c 1
 93 986 l 1
 100 1002 109 1020 134 1020 c 2
 599 1020 l 1
 631 1016 635 996 629 978 c 1
 598 856 l 1
 589 832 570 827 555 827 c 2
 90 827 l 2
EndSplineSet
EndChar

StartChar: rafe
Encoding: 1471 1471 140
Width: 0
VWidth: 1761
GlyphClass: 4
Flags: W
HStem: 1230 139<-177.266 178.081>
VStem: -195 391
AnchorPoint: "R" 0 0 mark 0
LayerCount: 2
Fore
SplineSet
-170 1230 m 2
 -185 1230 -195 1239 -195 1252 c 0
 -195 1254 -197 1257 -195 1262 c 2
 -172 1343 l 1
 -169 1350 -162 1369 -141 1369 c 2
 169 1369 l 2
 185 1369 196 1359 196 1344 c 0
 196 1341 196 1339 194 1335 c 2
 173 1254 l 1
 168 1239 156 1230 140 1230 c 2
 -170 1230 l 2
EndSplineSet
Substitution2: "'salt' Stylistic Alternatives lookup-1" varika
EndChar

StartChar: shindot
Encoding: 1473 1473 142
Width: 0
VWidth: 1761
GlyphClass: 4
Flags: W
LayerCount: 2
Fore
SplineSet
-30 1429 m 2
 -20 1440 -10 1445 -0 1445 c 1
 10 1445 20 1440 30 1430 c 2
 94 1367 l 2
 113 1348 112 1328 94 1309 c 2
 29 1244 l 2
 10 1226 -10 1225 -29 1244 c 2
 -92 1308 l 2
 -112 1328 -112 1348 -94 1367 c 2
 -30 1429 l 2
EndSplineSet
EndChar

StartChar: sindot
Encoding: 1474 1474 143
Width: 0
VWidth: 1761
GlyphClass: 4
Flags: W
LayerCount: 2
Fore
SplineSet
-30 1429 m 2
 -20 1440 -10 1445 -0 1445 c 1
 10 1445 20 1440 30 1430 c 2
 94 1367 l 2
 113 1348 112 1328 94 1309 c 2
 29 1244 l 2
 10 1226 -10 1225 -29 1244 c 2
 -92 1308 l 2
 -112 1328 -112 1348 -94 1367 c 2
 -30 1429 l 2
EndSplineSet
EndChar

StartChar: sofpasuq
Encoding: 1475 1475 144
Width: 501
VWidth: 1761
Flags: W
VStem: 98 309<131.75 262.641 803.75 934.641>
LayerCount: 2
Fore
SplineSet
209 328 m 2
 223 344 238 351 252 351 c 1
 266 351 281 344 295 329 c 2
 387 239 l 2
 401 225 407 212 407 198 c 0
 407 184 400 169 387 155 c 2
 294 62 l 2
 280 49 265 42 251 42 c 0
 210 62 l 2
 120 154 l 2
 105 169 98 184 98 198 c 0
 98 212 104 225 117 239 c 2
 209 328 l 2
209 1000 m 2
 223 1016 238 1023 252 1023 c 1
 266 1023 281 1016 295 1001 c 2
 387 911 l 2
 401 897 407 884 407 870 c 0
 407 856 400 841 387 827 c 2
 294 734 l 2
 280 721 265 714 251 714 c 0
 210 734 l 2
 120 826 l 2
 105 841 98 856 98 870 c 0
 98 884 104 897 117 911 c 2
 209 1000 l 2
EndSplineSet
EndChar

StartChar: alef
Encoding: 1488 1488 146
Width: 1348
VWidth: 1761
Flags: W
HStem: 0 204<102.831 210.104> 811 239<1051.14 1190.85>
VStem: 234 183<276.435 634.798>
AnchorPoint: "R" 700 0 basechar 0
AnchorPoint: "VR" 695 0 basechar 0
AnchorPoint: "Holam" 192 0 basechar 0
AnchorPoint: "N" 695 0 basechar 0
AnchorPoint: "W" 725 0 basechar 0
AnchorPoint: "H" 695 0 basechar 0
LayerCount: 2
Fore
SplineSet
960 473 m 1
 1112 315 1245 268 1245 213 c 1
 1245 203 1242 192 1235 178 c 2
 1161 28 l 2
 1155 18 1147 0 1126 0 c 1
 1114 4 1114 -2 1093 18 c 0
 820 266 717 354 476 631 c 0
 472 636 469 639 466 642 c 1
 454 624 417 563 417 503 c 0
 417 252 507 252 507 193 c 0
 507 189 506 182 503 173 c 2
 458 50 l 2
 441 4 424 0 381 0 c 2
 108 0 l 2
 97 0 60 -4 60 30 c 0
 60 35 60 39 66 57 c 2
 96 142 l 2
 112 187 116 189 163 204 c 2
 278 239 l 1
 264 302 234 357 234 460 c 1
 234 635 330 714 344 744 c 1
 342 749 334 757 327 764 c 2
 252 827 l 1
 241 840 234 848 234 863 c 0
 234 874 240 885 244 897 c 2
 307 1065 l 2
 315 1089 322 1108 345 1108 c 1
 359 1102 358 1112 384 1079 c 1
 794 629 l 2
 804 619 813 608 820 603 c 1
 852 625 917 717 917 788 c 0
 917 795 884 805 884 832 c 0
 884 833 886 844 887 845 c 2
 952 1001 l 2
 969 1041 977 1050 1017 1050 c 1
 1177 1050 l 1
 1184 1049 1233 1052 1233 1006 c 0
 1233 1001 1233 993 1229 982 c 2
 1193 861 l 1
 1178 818 1165 811 1128 811 c 2
 1123 811 l 2
 1071 811 1048 772 1045 744 c 0
 1030 598 971 515 960 473 c 1
EndSplineSet
Substitution2: "'jalt' Justification Alternatives lookup -1" alef.wide
EndChar

StartChar: bet
Encoding: 1489 1489 147
Width: 1085
VWidth: 2273
Flags: W
HStem: 0 248<128.329 788.003 923 990.642> 812 243<346.292 670.126>
VStem: 225 115<1055.81 1163.86> 788 135<248 579.67>
AnchorPoint: "R" 580 0 basechar 0
AnchorPoint: "VR" 520 0 basechar 0
AnchorPoint: "Holam" 80 0 basechar 0
AnchorPoint: "H" 520 0 basechar 0
AnchorPoint: "W" 550 0 basechar 0
AnchorPoint: "N" 520 0 basechar 0
LayerCount: 2
Fore
SplineSet
788 262 m 1
 725 623 773 812 519 812 c 2
 235 812 l 2
 206 812 170 830 170 866 c 0
 170 871 174 890 176 897 c 2
 225 1117 l 1
 246 1161 280 1171 300 1171 c 0
 323 1171 340 1158 340 1139 c 0
 340 1111 353 1072 365 1055 c 1
 568 1055 l 2
 915 1055 923 829 923 248 c 1
 981 248 l 2
 982 248 983 248 984 248 c 0
 996 248 1038 246 1038 203 c 0
 1038 199 1037 191 1034 180 c 2
 993 49 l 1
 974 3 961 0 923 0 c 2
 129 0 l 2
 113 0 71 3 71 38 c 0
 71 46 73 54 77 65 c 2
 126 199 l 1
 143 239 150 248 191 248 c 1
 754 248 l 1
 792 248 788 245 788 262 c 1
EndSplineSet
EndChar

StartChar: gimel
Encoding: 1490 1490 148
Width: 903
VWidth: 2273
Flags: W
HStem: -10 21G<701.5 715> 6 250<130.322 345.041>
AnchorPoint: "R" 480 0 basechar 0
AnchorPoint: "VR" 420 0 basechar 0
AnchorPoint: "Holam" 60 0 basechar 0
AnchorPoint: "H" 420 -30 basechar 0
AnchorPoint: "W" 460 0 basechar 0
AnchorPoint: "N" 480 0 basechar 0
LayerCount: 2
Fore
SplineSet
126 6 m 1x40
 89 6 69 19 69 43 c 0
 69 51 71 60 75 70 c 2
 128 206 l 1
 133 216 146 256 204 256 c 0x40
 360 256 425 370 491 526 c 1
 459 775 468 817 299 817 c 2
 213 817 l 2
 177 817 149 838 149 871 c 0
 149 876 149 881 151 887 c 2
 222 1123 l 1
 243 1167 277 1177 297 1177 c 0
 321 1177 339 1164 339 1144 c 0
 339 1138 350 1101 350 1083 c 0
 350 1064 370 1060 384 1060 c 0
 605 1060 657 1059 657 855 c 0
 657 213 870 294 870 209 c 0
 870 194 861 179 855 174 c 0
 746 80 777 34 735 0 c 0
 731 -3 722 -10 708 -10 c 1x80
 695 -7 686 -13 653 32 c 1
 591 111 551 224 530 331 c 1
 362 32 370 6 169 6 c 2
 126 6 l 1x40
EndSplineSet
EndChar

StartChar: dalet
Encoding: 1491 1491 149
Width: 1087
VWidth: 2273
Flags: W
HStem: -21 21G<681.5 704.5> 810 244<283.395 664.969>
VStem: 165 113<1064.17 1163.49> 665 230<89.89 530.025> 665 178<321.797 807.864>
AnchorPoint: "R" 590 0 basechar 0
AnchorPoint: "VR" 688 0 basechar 0
AnchorPoint: "Holam" 45 0 basechar 0
AnchorPoint: "H" 688 0 basechar 0
AnchorPoint: "W" 738 0 basechar 0
AnchorPoint: "N" 728 0 basechar 0
LayerCount: 2
Fore
SplineSet
665 762 m 0xe8
 665 798 655 810 593 810 c 2
 162 810 l 2
 133 810 97 828 97 864 c 0
 97 869 98 874 100 881 c 2
 165 1116 l 1
 186 1162 222 1171 240 1171 c 0
 263 1171 278 1158 278 1138 c 0
 278 1111 289 1071 300 1054 c 1
 937 1054 l 1
 939 1054 l 0
 952 1054 994 1052 994 1010 c 0
 994 1006 993 999 990 988 c 2
 964 901 l 1
 921 774 877 864 848 739 c 1
 844 720 843 701 843 684 c 0xe8
 843 656 846 630 846 606 c 0
 846 463 895 369 895 217 c 0xf0
 895 109 786 6 772 0 c 0
 768 -2 766 -5 751 -9 c 2
 720 -18 l 2
 717 -19 708 -21 701 -21 c 0
 662 -21 665 19 665 25 c 0
 665 227 665 293 665 762 c 0xe8
EndSplineSet
Substitution2: "'jalt' Justification Alternatives lookup -1" daled.wide
EndChar

StartChar: he
Encoding: 1492 1492 150
Width: 1274
VWidth: 2273
Flags: W
HStem: -18 21G<169 193 904 943> 814 240<324.395 887.958>
VStem: 123 243<42 272> 206 113<1067.09 1163.49> 888 220<83.8641 622.274> 888 176<229.095 810.831>
AnchorPoint: "R" 700 0 basechar 0
AnchorPoint: "VR" 616 0 basechar 0
AnchorPoint: "Holam" 92 0 basechar 0
AnchorPoint: "H" 616 0 basechar 0
AnchorPoint: "W" 606 0 basechar 0
AnchorPoint: "N" 576 0 basechar 0
LayerCount: 2
Fore
SplineSet
174 -18 m 1xe0
 164 -18 123 -16 123 42 c 0
 123 54 125 66 126 72 c 0
 210 529 110 657 291 701 c 0
 295 702 299 702 302 702 c 0
 323 702 341 687 341 645 c 2
 341 547 l 2
 341 486 366 376 366 272 c 0
 366 43 212 -18 174 -18 c 1xe0
888 766 m 0xc4
 888 802 874 814 818 814 c 2
 198 814 l 2
 162 814 136 835 136 868 c 0
 136 873 137 878 138 884 c 2
 206 1116 l 1
 227 1162 263 1171 281 1171 c 0
 304 1171 319 1158 319 1138 c 0
 319 1111 330 1071 341 1054 c 1
 1114 1054 l 1
 1116 1054 l 0
 1128 1054 1170 1052 1170 1009 c 0
 1170 1005 1170 1000 1168 990 c 2
 1150 903 l 1
 1121 790 1098 878 1076 762 c 0
 1066 714 1064 669 1064 629 c 0xd4
 1064 485 1108 374 1108 222 c 0xc8
 1108 112 1008 6 995 0 c 0
 989 -3 986 -5 974 -9 c 2
 943 -18 l 2
 938 -19 930 -18 923 -18 c 0
 885 -18 888 19 888 25 c 0
 888 227 888 296 888 766 c 0xc4
EndSplineSet
Substitution2: "'jalt' Justification Alternatives lookup -1" he.wide
EndChar

StartChar: vav
Encoding: 1493 1493 151
Width: 664
VWidth: 2273
Flags: W
VStem: 89 447<834.781 975.594> 142 113<1072.52 1164.11> 351 220<65.4119 618.945> 351 185<205.378 804.534>
AnchorPoint: "D" 160 0 basechar 0
AnchorPoint: "Holam_Haser_on_Vav" -57 0 basechar 0
AnchorPoint: "VR" 345 0 basechar 0
AnchorPoint: "N" 415 0 basechar 0
AnchorPoint: "W" 415 0 basechar 0
AnchorPoint: "H" 345 0 basechar 0
LayerCount: 2
Fore
SplineSet
351 772 m 2x10
 351 796 332 808 142 832 c 1x50
 104 840 89 900 89 916 c 0x80
 89 923 90 930 92 937 c 2
 142 1127 l 1
 162 1165 202 1169 217 1169 c 0
 240 1169 255 1165 255 1160 c 0x40
 255 1117 267 1075 277 1056 c 1
 512 1013 536 948 536 850 c 2x80
 536 799 l 2x10
 536 741 535 669 535 626 c 0
 535 475 571 356 571 198 c 0x20
 571 98 483 3 458 -6 c 0
 452 -9 450 -9 437 -12 c 2
 406 -23 l 2
 403 -23 394 -23 387 -23 c 0
 348 -23 351 -3 351 0 c 2
 351 772 l 2x10
EndSplineSet
EndChar

StartChar: zain
Encoding: 1494 1494 152
Width: 703
VWidth: 2273
Flags: W
VStem: 146 113<1058.39 1170.97> 248 177<366.785 761.266> 269 156<364.99 551.128 562.721 761.5> 273 209<86.6071 522.729>
AnchorPoint: "VR" 303 0 basechar 0
AnchorPoint: "Holam" 12 0 basechar 0
AnchorPoint: "N" 343 0 basechar 0
AnchorPoint: "W" 343 0 basechar 0
AnchorPoint: "H" 303 4 basechar 0
LayerCount: 2
Fore
SplineSet
425 648 m 0x40
 425 503 482 402 482 223 c 0
 482 112 382 12 369 6 c 0
 363 3 361 1 348 -3 c 2
 317 -12 l 2
 314 -13 305 -15 298 -15 c 0
 259 -15 262 25 262 31 c 0
 262 100 273 152 273 203 c 0x10
 273 353 248 431 248 557 c 0x40
 248 680 269 742 269 762 c 0x20
 269 839 92 797 92 881 c 0
 92 892 95 902 97 907 c 2
 146 1121 l 1
 163 1166 196 1177 221 1177 c 0
 244 1177 259 1164 259 1144 c 0
 259 1115 262 1060 273 1044 c 1x90
 548 995 l 1
 572 987 596 973 596 940 c 0
 596 929 593 917 591 912 c 2
 578 850 l 1
 565 817 545 757 501 757 c 2
 494 757 l 1
 462 763 l 2
 461 763 461 763 460 763 c 0
 450 763 425 742 425 648 c 0x40
EndSplineSet
EndChar

StartChar: het
Encoding: 1495 1495 153
Width: 1345
VWidth: 2273
Flags: W
HStem: 814 240<425.381 947.618>
VStem: 139 263<114.822 377.079> 192 113<1062.02 1163.81> 225 167<354.227 783.87> 959 220<82.1899 601.285> 963 172<224.084 804.671>
AnchorPoint: "VR" 640 0 basechar 0
AnchorPoint: "Holam" -9 0 basechar 0
AnchorPoint: "N" 640 0 basechar 0
AnchorPoint: "W" 670 0 basechar 0
AnchorPoint: "H" 640 0 basechar 0
LayerCount: 2
Fore
SplineSet
1185 1054 m 2xa0
 1187 1054 l 0
 1199 1054 1241 1052 1241 1009 c 0
 1241 1005 1241 1000 1239 990 c 2
 1221 903 l 1
 1192 790 1169 857 1147 741 c 0
 1137 693 1135 648 1135 608 c 0xa4
 1135 464 1179 369 1179 217 c 0
 1179 135 1132 73 1093 24 c 1
 1062 -18 995 -21 995 -21 c 0
 956 -21 959 -3 959 0 c 0x88
 959 407 963 605 963 703 c 0
 963 790 960 798 948 805 c 0
 940 810 923 814 894 814 c 2
 494 814 l 2
 420 814 392 710 392 600 c 0x94
 392 429 402 343 402 262 c 0
 402 168 367 108 261 7 c 0
 249 -4 237 -9 221 -13 c 1
 189 -18 l 2
 182 -19 178 -18 176 -18 c 0
 158 -18 139 -10 139 22 c 0
 139 24 139 26 139 29 c 0xc0
 139 234 225 478 225 760 c 0x90
 225 794 210 804 207 804 c 2
 192 804 l 2
 156 804 126 826 126 859 c 0
 126 864 126 869 128 875 c 2
 192 1116 l 1
 213 1163 249 1171 267 1171 c 0
 290 1171 305 1158 305 1138 c 0
 305 1111 316 1071 327 1054 c 1
 1185 1054 l 2xa0
EndSplineSet
EndChar

StartChar: tet
Encoding: 1496 1496 154
Width: 1211
VWidth: 2273
Flags: W
HStem: -22 251<482.105 720.275> 769 296<722.051 930.463>
VStem: 191 188<400.02 797.287> 951 178<322.883 749.473>
AnchorPoint: "VR" 649 0 basechar 0
AnchorPoint: "Holam" 37 0 basechar 0
AnchorPoint: "N" 589 0 basechar 0
AnchorPoint: "W" 619 0 basechar 0
AnchorPoint: "H" 649 0 basechar 0
LayerCount: 2
Fore
SplineSet
550 703 m 1
 584 838 644 1065 873 1065 c 0
 1129 1065 1129 746 1129 554 c 0
 1129 424 1090 159 951 77 c 1
 872 39 874 46 483 -13 c 1
 454 -18 432 -22 413 -22 c 0
 369 -22 346 1 302 87 c 0
 246 195 191 323 191 522 c 0
 191 607 204 709 228 824 c 1
 222 830 210 843 200 846 c 2
 150 856 l 2
 133 860 89 866 89 906 c 0
 89 912 90 918 93 928 c 1
 177 1112 l 1
 199 1152 230 1174 253 1174 c 0
 276 1174 291 1154 291 1137 c 0
 291 1106 302 1083 314 1071 c 1
 483 1039 l 2
 499 1035 531 1030 531 994 c 0
 531 991 531 986 530 977 c 2
 512 878 l 1
 494 789 439 810 379 791 c 1
 379 527 406 354 515 229 c 1
 654 229 745 247 887 296 c 1
 929 338 951 429 951 580 c 0
 951 736 935 769 810 769 c 0
 729 769 689 732 640 672 c 1
 635 667 614 659 596 659 c 1
 563 659 546 687 550 703 c 1
EndSplineSet
EndChar

StartChar: yod
Encoding: 1497 1497 155
Width: 740
VWidth: 2273
Flags: W
VStem: 410 210<668.474 924>
AnchorPoint: "VR" 334 0 basechar 0
AnchorPoint: "Holam" 20 0 basechar 0
AnchorPoint: "N" 394 0 basechar 0
AnchorPoint: "W" 394 0 basechar 0
AnchorPoint: "H" 334 0 basechar 0
LayerCount: 2
Fore
SplineSet
282 426 m 0
 282 451 410 638 410 751 c 0
 410 789 380 806 318 814 c 1
 155 844 l 2
 117 852 99 891 99 923 c 1
 100 930 100 935 106 940 c 1
 209 1157 l 1
 222 1184 261 1186 282 1186 c 0
 308 1186 323 1186 323 1167 c 0
 323 1159 321 1160 321 1135 c 0
 321 1106 325 1073 330 1055 c 1
 463 1031 l 1
 561 1017 620 970 620 878 c 0
 620 772 550 572 502 491 c 1
 459 436 396 398 341 398 c 0
 327 398 313 402 301 406 c 1
 282 415 282 423 282 426 c 0
EndSplineSet
EndChar

StartChar: finalkaf
Encoding: 1498 1498 156
Width: 1100
VWidth: 2273
Flags: W
HStem: 812 241<281.395 744.421>
VStem: 163 113<1062.12 1164.04> 781 229<-339.313 260.427> 781 175<-34.2701 777.984>
AnchorPoint: "VR" 219 0 basechar 0
AnchorPoint: "Holam" 58 0 basechar 0
AnchorPoint: "N" 471 -5 basechar 0
AnchorPoint: "W" 371 0 basechar 0
AnchorPoint: "H" 291 -5 basechar 0
LayerCount: 2
Fore
SplineSet
781 619 m 2xd0
 781 793 774 812 436 812 c 2
 163 812 l 2
 134 812 98 830 98 866 c 0
 98 872 98 877 101 883 c 2
 163 1116 l 1
 183 1160 217 1171 238 1171 c 0
 261 1171 276 1158 276 1138 c 0
 276 1110 287 1070 298 1053 c 1
 685 1053 l 2
 911 1053 977 940 977 805 c 0
 977 737 956 527 956 475 c 0xd0
 956 178 1010 -3 1010 -199 c 0xe0
 1010 -284 963 -349 924 -400 c 0
 908 -421 887 -429 868 -436 c 2
 837 -446 l 2
 833 -447 825 -449 817 -449 c 0
 778 -449 781 -409 781 -403 c 2
 781 619 l 2xd0
EndSplineSet
EndChar

StartChar: kaf
Encoding: 1499 1499 157
Width: 1090
VWidth: 2273
Flags: W
HStem: 0 247<131.75 850.455> 811 242<348.886 718.923>
VStem: 228 115<1067.17 1162.86> 859 182<252.754 651.67>
AnchorPoint: "R" 610 0 basechar 0
AnchorPoint: "VR" 506 0 basechar 0
AnchorPoint: "Holam" 80 0 basechar 0
AnchorPoint: "N" 506 0 basechar 0
AnchorPoint: "W" 506 0 basechar 0
AnchorPoint: "H" 506 0 basechar 0
LayerCount: 2
Fore
SplineSet
1041 266 m 0
 1042 260 1041 252 1041 247 c 0
 1041 141 914 0 811 0 c 2
 131 0 l 2
 115 0 73 2 73 37 c 0
 73 45 75 53 79 64 c 2
 130 199 l 1
 149 241 157 247 195 247 c 2
 751 247 l 2
 845 247 859 265 859 339 c 2
 859 422 l 2
 859 599 841 811 518 811 c 2
 224 811 l 2
 195 811 161 846 161 881 c 0
 161 886 162 891 164 898 c 2
 228 1116 l 1
 249 1160 283 1170 303 1170 c 0
 327 1170 343 1157 343 1137 c 0
 343 1109 355 1070 367 1053 c 1
 705 1053 l 1
 1007 1053 988 687 1041 266 c 0
EndSplineSet
Substitution2: "'jalt' Justification Alternatives lookup -1" khaf.wide
EndChar

StartChar: lamed
Encoding: 1500 1500 158
Width: 1139
VWidth: 2273
Flags: W
HStem: 813 242<298.734 797.571> 1392 246<316.191 440.983>
VStem: 106 176<877 1308.38> 806 221<674.713 879.5>
AnchorPoint: "J1" -2 0 basechar 0
AnchorPoint: "VR" 484 0 basechar 0
AnchorPoint: "Holam" -33 100 basechar 0
AnchorPoint: "N" 344 0 basechar 0
AnchorPoint: "W" 294 0 basechar 0
AnchorPoint: "H" 384 0 basechar 0
LayerCount: 2
Fore
SplineSet
280 1638 m 0
 329 1638 378 1638 427 1638 c 0
 446 1638 490 1636 490 1597 c 0
 490 1587 486 1574 482 1562 c 2
 445 1446 l 2
 429 1397 398 1392 369 1392 c 0
 359 1392 349 1392 341 1392 c 0
 329 1392 320 1390 316 1383 c 0
 299 1354 282 1306 282 1210 c 0
 282 1172 290 1125 302 1088 c 0
 312 1058 324 1055 344 1055 c 2
 850 1055 l 1
 1013 1029 1027 906 1027 853 c 0
 1027 596 677 166 308 13 c 1
 278 -1 262 -7 250 -7 c 0
 241 -7 219 -1 219 25 c 0
 219 38 225 52 240 91 c 1
 303 226 l 1
 318 267 336 285 381 306 c 0
 676 441 806 616 806 727 c 0
 806 776 779 813 708 813 c 2
 213 813 l 2
 127 813 106 839 106 915 c 0
 106 1202 218 1610 218 1610 c 1
 232 1636 260 1638 280 1638 c 0
EndSplineSet
Substitution2: "'jalt' Justification Alternatives lookup -1" lamed.wide
EndChar

StartChar: finalmem
Encoding: 1501 1501 159
Width: 1293
VWidth: 2273
Flags: W
HStem: 0 248<358.436 977.741> 811 241<364.002 907.983>
VStem: 176 113<1064.72 1162.04> 184 167<248 775.788> 978 183<248.699 743.133>
AnchorPoint: "VR" 677 0 basechar 0
AnchorPoint: "Holam" 9 0 basechar 0
AnchorPoint: "N" 647 0 basechar 0
AnchorPoint: "W" 667 0 basechar 0
AnchorPoint: "H" 677 0 basechar 0
LayerCount: 2
Fore
SplineSet
269 0 m 1xe8
 217 0 191 9 191 70 c 0
 191 146 184 223 184 300 c 0xd8
 184 549 202 691 233 790 c 1
 163 811 l 2
 146 816 105 825 105 863 c 0
 105 868 110 888 112 894 c 2
 176 1114 l 1
 196 1159 230 1169 251 1169 c 0
 274 1169 289 1156 289 1136 c 0
 289 1108 300 1069 311 1052 c 1
 871 1052 l 2
 1146 1052 1161 888 1161 736 c 2
 1161 156 l 2
 1161 122 1164 94 1164 72 c 0
 1164 19 1146 0 1026 0 c 2
 269 0 l 1xe8
910 248 m 2
 978 248 978 258 978 316 c 2
 978 339 l 2
 978 465 974 605 971 623 c 0
 947 791 898 811 648 811 c 1
 391 811 l 1
 367 811 364 808 364 777 c 0
 364 675 351 623 351 525 c 0
 351 250 359 248 396 248 c 0
 398 248 l 2
 910 248 l 2
EndSplineSet
Substitution2: "'jalt' Justification Alternatives lookup -1" finalmem.wide
EndChar

StartChar: mem
Encoding: 1502 1502 160
Width: 1343
VWidth: 2273
Flags: W
HStem: 0 247<604.617 1110.07> 813 239<715.868 987.384>
VStem: 97 416<829.679 981.157> 167 221<13.1828 204.318> 1113 170<248.21 414.827>
AnchorPoint: "VR" 706 0 basechar 0
AnchorPoint: "Holam" 53 0 basechar 0
AnchorPoint: "N" 706 0 basechar 0
AnchorPoint: "W" 736 0 basechar 0
AnchorPoint: "H" 706 0 basechar 0
LayerCount: 2
Fore
SplineSet
228 0 m 2xd8
 227 0 225 0 223 0 c 0
 204 0 167 1 167 42 c 0xd8
 167 124 331 469 331 696 c 0
 331 741 323 761 300 771 c 1
 153 825 l 2
 136 832 97 843 97 879 c 0
 97 884 98 889 100 895 c 2
 164 1116 l 1
 182 1156 208 1171 231 1171 c 0
 249 1171 265 1162 273 1149 c 1
 297 1107 296 1051 303 1047 c 0
 374 1002 513 1009 513 903 c 0xe8
 513 862 504 858 490 771 c 1
 559 825 636 894 688 962 c 1
 750 1035 676 1052 874 1052 c 0
 1115 1052 1195 1017 1239 688 c 0
 1256 559 1283 428 1283 250 c 0
 1283 157 1240 0 1064 0 c 2
 601 0 l 1
 587 0 539 0 539 37 c 0
 539 45 541 54 545 64 c 2
 602 198 l 1
 621 241 631 247 672 247 c 2
 1024 247 l 1
 1105 247 1113 252 1113 292 c 0
 1113 302 1109 321 1109 340 c 1
 1072 554 l 1
 1034 750 994 813 863 813 c 0
 838 813 810 811 778 807 c 1
 742 795 697 772 681 760 c 1
 462 623 460 447 388 95 c 1
 373 30 357 0 277 0 c 2
 228 0 l 2xd8
EndSplineSet
EndChar

StartChar: finalnun
Encoding: 1503 1503 161
Width: 677
VWidth: 2273
Flags: W
VStem: 87 445<813.279 1035.56> 326 172<262.48 805.645> 341 211<-313.482 183.798>
AnchorPoint: "VR" -226 0 basechar 0
AnchorPoint: "Holam" 74 0 basechar 0
AnchorPoint: "N" 76 0 basechar 0
AnchorPoint: "W" -64 0 basechar 0
AnchorPoint: "H" -124 0 basechar 0
LayerCount: 2
Fore
SplineSet
459 1054 m 2x80
 466 1053 532 1054 532 968 c 2
 532 886 l 2x80
 532 792 498 889 498 641 c 2
 498 626 l 2x40
 498 331 552 150 552 -45 c 0
 552 -96 549 -150 541 -211 c 1
 519 -353 412 -449 378 -449 c 1
 359 -443 341 -450 341 -362 c 0x20
 341 93 326 304 326 767 c 0x40
 326 802 314 810 222 810 c 2
 152 810 l 2
 123 810 87 829 87 865 c 0
 87 870 88 876 90 882 c 2
 153 1116 l 1
 173 1162 204 1173 221 1173 c 0
 285 1173 259 1104 288 1054 c 1
 459 1054 l 2x80
EndSplineSet
EndChar

StartChar: nun
Encoding: 1504 1504 162
Width: 803
VWidth: 2273
Flags: W
HStem: 0 249<131.329 510.998>
VStem: 190 469<814.631 1028.88> 259 113<1065.96 1166.15> 511 148<253.709 756.497>
AnchorPoint: "VR" 365 0 basechar 0
AnchorPoint: "Holam" 96 0 basechar 0
AnchorPoint: "N" 375 0 basechar 0
AnchorPoint: "W" 375 0 basechar 0
AnchorPoint: "H" 365 0 basechar 0
LayerCount: 2
Fore
SplineSet
694 99 m 0x90
 694 4 605 0 546 0 c 0
 543 0 539 0 536 0 c 2
 132 0 l 2
 131 0 130 0 128 0 c 0
 112 0 74 3 74 42 c 1
 76 54 75 57 80 67 c 1
 129 200 l 1
 146 240 153 249 194 249 c 2
 492 249 l 2
 508 249 511 250 511 272 c 0x90
 511 535 481 779 444 812 c 1
 255 812 l 2
 219 812 190 834 190 867 c 0xc0
 190 873 192 879 193 882 c 2
 259 1117 l 1
 278 1160 308 1172 329 1172 c 0
 349 1172 372 1158 372 1131 c 0xa0
 372 1103 383 1070 393 1055 c 1
 549 1055 l 2
 649 1055 659 960 659 850 c 2xc0
 659 776 l 2
 659 684 666 608 666 510 c 0
 666 417 694 122 694 99 c 0x90
EndSplineSet
EndChar

StartChar: samekh
Encoding: 1505 1505 163
Width: 1198
VWidth: 2273
Flags: W
HStem: -34 282<457.635 818.308> 813 241<340.562 890.388>
VStem: 170 162<395.126 759.633> 176 117<1065.82 1165.3> 935 178<351.675 769.875>
AnchorPoint: "VR" 652 0 basechar 0
AnchorPoint: "Holam" 46 0 basechar 0
AnchorPoint: "N" 632 0 basechar 0
AnchorPoint: "W" 632 0 basechar 0
AnchorPoint: "H" 652 0 basechar 0
LayerCount: 2
Fore
SplineSet
104 864 m 2xe8
 176 1116 l 1
 195 1160 229 1172 249 1172 c 0
 275 1172 293 1155 293 1130 c 0xd8
 293 1102 305 1069 316 1054 c 1
 867 1054 l 1
 966 1054 1078 968 1091 852 c 1
 1106 776 1113 700 1113 622 c 0
 1113 292 1042 -34 602 -34 c 0
 176 -34 170 314 170 750 c 0
 170 824 143 777 111 821 c 0
 102 832 102 843 102 849 c 0
 102 853 102 858 104 864 c 2xe8
935 525 m 2
 935 794 907 813 664 813 c 0
 384 813 360 811 336 760 c 0
 333 753 332 692 332 668 c 0xe8
 332 312 465 248 616 248 c 0
 717 248 806 270 869 323 c 1
 908 364 935 428 935 481 c 2
 935 525 l 2
EndSplineSet
EndChar

StartChar: ayin
Encoding: 1506 1506 164
Width: 1268
VWidth: 2273
Flags: W
VStem: 187 123<1050.75 1160.57> 256 169<600.427 806>
AnchorPoint: "D" 670 120 basechar 0
AnchorPoint: "VR" 502 0 basechar 0
AnchorPoint: "Holam" 11 0 basechar 0
AnchorPoint: "N" 522 0 basechar 0
AnchorPoint: "W" 452 0 basechar 0
AnchorPoint: "H" 502 0 basechar 0
LayerCount: 2
Fore
SplineSet
417 1050 m 1x80
 448 1050 526 1050 526 985 c 0
 526 972 522 958 520 952 c 2
 488 825 l 1
 425 810 l 1
 425 575 583 394 698 359 c 1
 844 458 873 623 917 803 c 1
 916 803 914 804 911 804 c 2
 859 814 l 2
 838 818 802 822 802 853 c 1
 804 866 803 867 807 875 c 1
 843 1001 l 1
 862 1039 869 1050 916 1050 c 2
 1053 1050 l 1
 1104 1050 1164 1049 1164 986 c 0
 1164 976 1164 966 1160 954 c 2
 1131 826 l 1
 1076 807 l 1
 988 341 985 114 216 -36 c 1
 166 -47 135 -54 115 -54 c 0
 77 -54 68 -28 68 -11 c 0
 68 3 72 19 90 61 c 1
 113 123 l 1
 150 204 167 210 270 227 c 1
 482 257 l 1
 342 374 256 598 256 806 c 1x40
 184 821 l 2
 177 823 124 832 124 875 c 0
 124 880 125 885 127 892 c 2
 187 1099 l 1x80
 206 1150 232 1167 256 1167 c 0x40
 283 1167 307 1146 310 1129 c 0
 316 1087 316 1066 325 1050 c 1
 417 1050 l 1x80
EndSplineSet
Substitution2: "'salt' Stylistic Alternatives lookup-1" ayin.alt
Substitution2: "Alternate Ayin Substitution Table" ayin.alt
EndChar

StartChar: finalpe
Encoding: 1507 1507 165
Width: 1036
VWidth: 2273
Flags: W
HStem: 408 231<310.195 422.862> 811 243<331.788 693.216>
VStem: 117 181<659 810.374> 126 322<420.25 620.787> 719 188<136.093 781.826> 737 211<-327.037 174.724>
AnchorPoint: "VR" 218 0 basechar 0
AnchorPoint: "Holam" 87 0 basechar 0
AnchorPoint: "H" 248 1 basechar 0
AnchorPoint: "W" 368 1 basechar 0
AnchorPoint: "N" 498 1 basechar 0
LayerCount: 2
Fore
SplineSet
338 639 m 0xe8
 378 639 422 632 436 553 c 1
 444 504 l 2
 446 492 448 482 448 473 c 0
 448 411 400 408 358 408 c 2
 228 408 l 1
 127 408 126 480 126 544 c 0xd0
 126 589 117 640 117 694 c 0
 117 799 131 912 178 1036 c 1
 205 1116 l 1
 222 1155 249 1171 279 1171 c 0
 304 1171 327 1157 327 1130 c 0
 327 1102 339 1069 351 1054 c 1
 549 1054 l 2
 826 1054 895 934 895 852 c 1
 898 839 907 797 907 630 c 2
 907 616 l 2xe8
 907 315 948 148 948 -52 c 0
 948 -280 906 -346 831 -421 c 0
 806 -445 792 -457 775 -457 c 1
 757 -451 737 -458 737 -369 c 0xc4
 737 90 719 141 719 663 c 0
 719 794 708 811 361 811 c 0
 325 811 298 807 298 768 c 1
 310 659 l 1
 314 642 328 639 338 639 c 0xe8
EndSplineSet
EndChar

StartChar: pe
Encoding: 1508 1508 166
Width: 1089
VWidth: 2273
Flags: W
HStem: 0 248<135.47 833.329> 410 222<330.841 488.843> 811 243<356.968 692.984>
VStem: 155 171<640.219 808.248> 838 190<261.946 415.715>
AnchorPoint: "R" 600 0 basechar 0
AnchorPoint: "VR" 541 0 basechar 0
AnchorPoint: "Holam" 130 0 basechar 0
AnchorPoint: "H" 541 0 basechar 0
AnchorPoint: "W" 541 0 basechar 0
AnchorPoint: "N" 531 0 basechar 0
LayerCount: 2
Fore
SplineSet
365 632 m 0
 389 632 411 638 433 638 c 0
 439 638 446 638 453 636 c 0
 487 624 487 595 494 560 c 1
 500 512 l 1
 503 498 506 480 506 467 c 0
 506 413 468 410 399 410 c 2
 260 410 l 2
 176 410 155 457 155 680 c 0
 155 858 181 970 205 1036 c 1
 232 1116 l 1
 249 1155 276 1171 305 1171 c 0
 329 1171 352 1157 352 1130 c 0
 352 1102 364 1069 375 1054 c 1
 625 1054 l 2
 884 1054 954 995 985 711 c 2
 1028 310 l 1
 1028 300 l 1
 1029 291 1031 281 1031 269 c 0
 1031 118 900 0 812 0 c 2
 141 0 l 2
 125 0 87 2 87 41 c 0
 87 50 91 59 92 64 c 2
 133 199 l 1
 151 239 159 248 199 248 c 2
 630 248 l 2
 827 248 838 268 838 303 c 0
 838 377 775 659 765 681 c 0
 731 752 731 811 372 811 c 0
 336 811 326 803 326 764 c 2
 326 754 l 2
 326 652 340 632 365 632 c 0
EndSplineSet
EndChar

StartChar: finaltsadi
Encoding: 1509 1509 167
Width: 1269
VWidth: 2273
Flags: W
HStem: 794 257<971.114 1110.22>
VStem: 152 113<1064.05 1163.58> 433 205<-408.596 64.5781>
AnchorPoint: "M1" 189 0 basechar 0
AnchorPoint: "Holam" 89 0 basechar 0
AnchorPoint: "H" 1091 0 basechar 0
AnchorPoint: "W" 941 0 basechar 0
AnchorPoint: "N" 841 0 basechar 0
LayerCount: 2
Fore
SplineSet
286 1051 m 1
 416 1051 l 2
 464 1051 518 1050 518 982 c 0
 518 973 517 961 513 951 c 2
 467 833 l 1
 457 822 450 813 450 800 c 0
 450 793 452 785 456 766 c 2
 507 491 l 1
 631 581 738 667 818 787 c 1
 806 806 794 827 794 849 c 0
 794 863 800 879 803 887 c 2
 848 1004 l 1
 868 1044 876 1051 919 1051 c 2
 1056 1051 l 2
 1111 1051 1174 1045 1174 990 c 0
 1174 982 1172 968 1169 964 c 2
 1125 864 l 1
 1096 802 1087 808 1030 794 c 0
 993 785 990 780 956 726 c 1
 841 556 704 432 574 281 c 1
 574 86 638 -100 638 -293 c 0
 638 -377 576 -436 549 -444 c 2
 511 -456 l 2
 503 -459 486 -460 474 -460 c 0
 447 -460 433 -455 433 -409 c 2
 433 -390 l 2
 433 -62 360 375 305 727 c 0
 296 787 271 792 212 802 c 1
 144 820 l 2
 126 825 85 836 85 874 c 0
 85 880 86 884 88 891 c 2
 152 1114 l 1
 168 1151 194 1169 222 1169 c 0
 242 1169 265 1155 265 1127 c 0
 265 1099 276 1066 286 1051 c 1
EndSplineSet
EndChar

StartChar: tsadi
Encoding: 1510 1510 168
Width: 1229
VWidth: 2273
Flags: W
HStem: 0 248<132.52 755.726> 799 255<954.171 1071.56>
VStem: 141 456<881.442 1048.51> 208 113<1078.17 1176.62>
AnchorPoint: "VR" 542 0 basechar 0
AnchorPoint: "Holam" 133 0 basechar 0
AnchorPoint: "H" 542 0 basechar 0
AnchorPoint: "W" 542 0 basechar 0
AnchorPoint: "N" 542 0 basechar 0
LayerCount: 2
Fore
SplineSet
850 0 m 2xe0
 134 0 l 2
 119 0 78 2 78 42 c 0
 78 46 79 53 82 63 c 2
 130 198 l 1
 146 239 154 248 196 248 c 0
 375 248 553 248 732 248 c 0
 754 248 771 264 755 278 c 1
 693 338 480 544 288 812 c 1
 198 840 l 2
 189 843 141 855 141 893 c 0xe0
 141 898 142 903 144 909 c 2
 208 1127 l 1
 227 1171 257 1182 278 1182 c 0
 298 1182 321 1168 321 1141 c 0xd0
 321 1113 340 1072 355 1054 c 1
 492 1054 l 2
 543 1054 597 1053 597 985 c 0
 597 977 596 963 592 954 c 2
 534 847 l 1
 514 827 l 1
 577 724 669 613 718 557 c 1
 759 623 778 684 778 772 c 1
 760 826 752 846 752 864 c 0
 752 879 757 891 762 901 c 1
 797 999 l 1
 804 1014 817 1054 880 1054 c 2
 1016 1054 l 2
 1063 1054 1134 1051 1134 994 c 0
 1134 986 1132 972 1129 968 c 2
 1085 868 l 1
 1056 807 1047 813 990 799 c 0
 940 787 992 794 828 434 c 1
 954 296 1039 267 1039 195 c 0
 1039 171 1029 147 1024 136 c 2
 1005 94 l 1
 974 10 931 0 850 0 c 2xe0
EndSplineSet
EndChar

StartChar: kof
Encoding: 1511 1511 169
Width: 1195
VWidth: 2273
Flags: W
HStem: -25 305<573.542 685.734> 811 241<306.092 874.836>
VStem: 160 206<-361.006 320.841 376.784 571.562> 160 180<-143.121 571.562> 188 114<1059.24 1163.62> 913 175<521.686 881>
AnchorPoint: "M1" 10 0 basechar 0
AnchorPoint: "Holam" 55 -1 basechar 0
AnchorPoint: "H" 828 0 basechar 0
AnchorPoint: "W" 718 0 basechar 0
AnchorPoint: "N" 568 0 basechar 0
LayerCount: 2
Fore
SplineSet
188 811 m 2xcc
 152 811 124 832 124 865 c 0
 124 873 124 872 127 881 c 2
 188 1114 l 1
 206 1156 235 1169 258 1169 c 0
 278 1169 302 1155 302 1128 c 0
 302 1100 314 1067 326 1052 c 1
 867 1052 l 1
 1036 1052 1088 915 1088 847 c 0
 1088 475 931 175 648 -8 c 1
 627 -20 603 -25 585 -25 c 0
 543 -25 513 0 513 41 c 0
 513 56 518 75 519 78 c 2
 550 185 l 1
 566 250 598 259 648 280 c 1
 783 347 913 497 913 648 c 0
 913 774 864 811 715 811 c 2
 188 811 l 2xcc
360 673 m 0
 360 643 340 536 340 369 c 0xd4
 340 161 366 -13 366 -219 c 0
 366 -366 268 -427 205 -427 c 1
 171 -422 160 -417 160 -336 c 2
 160 423 l 2xe4
 160 501 169 518 199 564 c 2
 280 685 l 2
 288 698 304 705 321 705 c 1
 329 703 360 701 360 673 c 0
EndSplineSet
EndChar

StartChar: resh
Encoding: 1512 1512 170
Width: 1059
VWidth: 2273
Flags: W
HStem: 811 242<276.705 735.166>
VStem: 160 113<1055.1 1164.22> 775 206<86.0625 769.984> 775 177<148.402 769.984>
AnchorPoint: "VR" 677 0 basechar 0
AnchorPoint: "Holam" 63 0 basechar 0
AnchorPoint: "H" 677 -1 basechar 0
AnchorPoint: "W" 847 -1 basechar 0
AnchorPoint: "N" 847 -1 basechar 0
LayerCount: 2
Fore
SplineSet
826 -33 m 0xe0
 795 -33 788 -10 788 37 c 0
 788 122 775 514 775 595 c 2
 775 620 l 2xe0
 775 769 767 811 453 811 c 2
 166 811 l 2
 130 811 101 832 101 865 c 0
 101 871 103 878 104 881 c 2
 160 1115 l 1
 178 1157 208 1170 230 1170 c 0
 250 1170 273 1156 273 1129 c 0
 273 1101 284 1068 294 1053 c 1
 657 1053 l 2
 966 1053 931 829 952 665 c 1xd0
 952 543 981 383 981 337 c 2
 981 241 l 2
 981 200 976 173 951 118 c 2
 917 45 l 2
 893 -5 854 -33 826 -33 c 0xe0
EndSplineSet
Substitution2: "'jalt' Justification Alternatives lookup -1" resh.wide
EndChar

StartChar: shin
Encoding: 1513 1513 171
Width: 1527
VWidth: 2273
Flags: W
HStem: -22 260<702 868.741>
VStem: 155 113<1063.72 1162.86> 590 423<852 1008>
AnchorPoint: "VR" 718 0 basechar 0
AnchorPoint: "Holam" 33 0 basechar 0
AnchorPoint: "H" 718 0 basechar 0
AnchorPoint: "W" 668 0 basechar 0
AnchorPoint: "N" 668 0 basechar 0
LayerCount: 2
Fore
SplineSet
1390 1054 m 2
 1440 1054 1477 1050 1477 1011 c 0
 1477 1001 1475 990 1463 961 c 2
 1439 904 l 1
 1401 811 1387 832 1366 819 c 0
 1331 797 1321 720 1316 703 c 0
 1221 348 1207 -22 534 -22 c 2
 488 -22 l 2
 435 -22 374 -18 349 66 c 0
 291 269 272 471 239 712 c 0
 230 780 237 784 190 804 c 2
 143 823 l 2
 117 834 88 845 88 877 c 0
 88 880 88 885 91 893 c 2
 155 1113 l 1
 170 1147 197 1169 225 1169 c 0
 242 1169 268 1156 268 1127 c 0
 268 1099 279 1066 289 1051 c 1
 443 1051 l 2
 485 1051 535 1051 535 1008 c 0
 535 998 533 987 521 959 c 2
 496 900 l 1
 445 793 436 840 402 804 c 0
 398 799 395 795 395 781 c 0
 395 775 396 771 396 766 c 0
 416 592 420 375 551 246 c 1
 553 255 555 264 557 271 c 2
 664 757 l 2
 672 794 669 782 671 798 c 1
 670 799 669 800 661 803 c 2
 639 811 l 1
 625 815 590 823 590 852 c 0
 590 859 592 866 596 875 c 2
 648 1004 l 1
 667 1044 676 1051 717 1051 c 2
 922 1051 l 2
 968 1051 1013 1050 1013 1008 c 0
 1013 998 1011 987 998 959 c 1
 974 901 l 1
 934 813 924 831 895 816 c 1
 862 796 859 766 847 726 c 2
 709 269 l 2
 706 258 703 246 702 238 c 1
 703 238 704 238 705 238 c 0
 712 238 728 240 743 240 c 1
 1005 275 1104 510 1171 746 c 0
 1177 765 1180 777 1180 785 c 0
 1180 799 1169 799 1141 806 c 1
 1119 813 l 2
 1097 819 1068 827 1068 854 c 0
 1068 861 1070 869 1074 878 c 2
 1127 1007 l 2
 1144 1046 1152 1054 1196 1054 c 2
 1390 1054 l 2
EndSplineSet
EndChar

StartChar: tav
Encoding: 1514 1514 172
Width: 1300
VWidth: 2273
Flags: W
HStem: 0 206<104.453 282.012> 811 241<468.695 976.916>
VStem: 60 391<26.416 162.026> 279 165<500.293 778.533> 284 196<213.258 429.501> 310 116<1063.72 1163.25> 1032 195<60.5116 395.066>
AnchorPoint: "R" 760 0 basechar 0
AnchorPoint: "VR" 681 0 basechar 0
AnchorPoint: "Holam" 179 0 basechar 0
AnchorPoint: "H" 681 -2 basechar 0
AnchorPoint: "W" 701 -2 basechar 0
AnchorPoint: "N" 681 -2 basechar 0
LayerCount: 2
Fore
SplineSet
1080 -38 m 0xc6
 1036 -38 1032 41 1032 93 c 0
 1032 181 1016 494 1016 600 c 2
 1016 606 l 2
 1016 773 1014 811 699 811 c 2
 524 811 l 2
 476 811 444 728 444 666 c 1xd2
 478 273 l 1
 478 257 480 240 480 224 c 0xca
 480 165 464 134 451 101 c 1
 407 4 388 0 293 0 c 2
 134 0 l 2
 113 0 60 0 60 46 c 0xe2
 60 63 71 87 79 113 c 1
 106 182 125 191 208 206 c 1
 276 217 284 210 284 295 c 2
 284 321 l 1xca
 279 645 l 1xd2
 279 718 306 752 333 794 c 1
 295 811 l 2
 269 822 239 832 239 863 c 0
 239 867 240 871 243 879 c 2
 310 1114 l 1
 331 1162 364 1169 380 1169 c 0
 403 1169 426 1155 426 1128 c 0
 426 1100 438 1067 449 1052 c 1
 903 1052 l 1
 1193 1052 1183 757 1193 664 c 1
 1226 199 l 2
 1226 197 1227 193 1227 184 c 0
 1227 115 1140 -38 1080 -38 c 0xc6
EndSplineSet
Substitution2: "'jalt' Justification Alternatives lookup -1" tav.wide
EndChar

StartChar: newshekel
Encoding: 8362 8362 186
Width: 1575
VWidth: 1761
Flags: W
HStem: -48 265<686.775 1014.02> 813 238<346.553 801.963> 832 217<1384.23 1473.13>
VStem: 68 258<94.6043 379.337> 120 113<1068.9 1165.63> 154 162<354.47 789.325> 370 243<473 591> 396 321<585.173 747.304> 461 152<251.197 531.913> 802 188<294.45 625.162> 802 172<423.438 812.065>
LayerCount: 2
Fore
SplineSet
316 579 m 0xc420
 316 432 326 336 326 262 c 0xd0
 326 150 288 89 200 -7 c 0
 182 -27 173 -32 150 -38 c 1
 120 -42 l 2xc8
 113 -43 107 -43 105 -43 c 0
 83 -43 68 -2 68 4 c 0xd0
 68 219 154 495 154 789 c 0xc4
 154 824 138 835 136 835 c 2
 120 835 l 2
 84 835 55 858 55 892 c 0
 55 897 55 902 57 909 c 2
 120 1116 l 1
 140 1161 173 1173 195 1173 c 0
 218 1173 233 1159 233 1139 c 0
 233 1110 244 1069 255 1051 c 1
 1023 1051 l 1
 1030 1050 1079 1053 1079 1004 c 0
 1079 1000 1079 994 1077 984 c 2
 1060 916 l 2
 1031 798 1008 891 986 769 c 0
 976 719 974 672 974 630 c 0xc820
 974 526 990 473 990 421 c 0xc040
 990 375 978 334 933 276 c 1
 909 247 857 232 835 232 c 0
 796 232 802 272 802 278 c 2
 802 763 l 2
 802 796 800 813 741 813 c 2
 413 813 l 2
 348 813 316 742 316 579 c 0xc420
396 675 m 0xa1
 431 761 445 762 545 762 c 2
 552 762 l 2
 652 762 717 755 717 721 c 0xa1
 717 719 717 716 716 713 c 2
 701 658 l 1
 678 597 l 1
 646 525 613 553 613 504 c 0xa2
 613 442 613 346 651 256 c 1
 669 233 675 227 686 221 c 1
 702 217 753 217 761 217 c 0
 821 217 898 222 918 225 c 0
 1165 260 1170 490 1223 752 c 0
 1227 774 1231 787 1231 795 c 0
 1231 808 1222 808 1194 816 c 1
 1174 823 l 1
 1153 829 1126 838 1126 866 c 0
 1126 873 1127 881 1131 891 c 2
 1174 1000 l 2
 1191 1043 1201 1049 1239 1049 c 2
 1436 1049 l 2
 1477 1049 1518 1048 1518 1004 c 0
 1518 994 1516 982 1504 953 c 2
 1480 893 l 2
 1458 838 1446 832 1436 832 c 0
 1431 832 1427 832 1422 832 c 0
 1411 832 1379 809 1365 711 c 0
 1305 322 1361 -48 723 -48 c 2
 679 -48 l 2
 629 -48 593 -37 550 38 c 0
 492 140 461 197 461 435 c 0
 461 457 461 473 461 485 c 0xa080
 461 507 456 515 425 529 c 1
 384 546 l 2
 374 551 370 562 370 577 c 0xa2
 370 605 384 645 396 675 c 0xa1
EndSplineSet
EndChar

StartChar: Euro
Encoding: 8364 8364 187
Width: 929
Flags: W
HStem: -25 109<459.973 709.452> 34 253<753 864> 374 113<65 145 362 627> 563 111<65 145 361 627> 966 112<452.08 705.615>
VStem: 145 210<239.978 374 487 563 674 813.301> 737 96<796 898.144> 753 111<191.427 287>
LayerCount: 2
Fore
SplineSet
154 374 m 1xbd
 65 374 l 1
 65 487 l 1
 145 487 l 2
 145 488 145 488 145 489 c 0
 145 510 145 531 145 552 c 0
 145 555 145 559 145 563 c 1
 65 563 l 1
 65 674 l 1
 154 674 l 1
 201 1012 401 1078 557 1078 c 0
 667 1078 739 1060 833 1033 c 1
 833 796 l 1
 737 796 l 1
 721 910 l 1
 677 949 621 966 573 966 c 0
 490 966 389 933 361 674 c 1
 627 674 l 1
 627 563 l 1
 355 563 l 1
 355 560 355 556 355 553 c 2
 355 487 l 1
 627 487 l 1
 627 374 l 1
 362 374 l 1
 383 191 449 84 569 84 c 0xbe
 624 84 690 102 732 147 c 1
 753 287 l 1
 864 287 l 1
 864 34 l 1x7d
 790 6 678 -25 557 -25 c 0
 321 -25 190 138 154 374 c 1xbd
EndSplineSet
EndChar

StartChar: dottedcircle
Encoding: 9676 9676 188
Width: 1276
VWidth: 2273
Flags: W
HStem: 36 189<557.834 718.166> 96 189<335.082 495.166 780.834 940.918> 258 190<172.788 332.166 943.834 1103.21> 481 190<112.788 272.166 1003.83 1163.21> 704 190<172.788 332.166 943.834 1103.21> 867 189<335.082 495.166 780.834 940.918> 927 191<557.834 718.166>
VStem: 98 189<495.834 656.166> 158 189<273.082 433.166 718.834 878.918> 320 190<110.788 270.166 881.834 1041.21> 543 190<50.7877 210.166 941.834 1102.62> 766 190<110.788 270.166 881.834 1041.21> 929 189<273.082 433.166 718.834 878.918> 989 189<495.834 656.166>
CounterMasks: 1 38
AnchorPoint: "Holam" 120 3 basechar 0
LayerCount: 2
Fore
SplineSet
1118 799 m 0x1828
 1118 746 1076 704 1024 704 c 0
 971 704 929 746 929 799 c 0
 929 851 971 894 1024 894 c 0
 1076 894 1118 851 1118 799 c 0x1828
956 190 m 0x5030
 956 138 913 96 861 96 c 0
 808 96 766 138 766 190 c 0
 766 243 808 285 861 285 c 0
 913 285 956 243 956 190 c 0x5030
347 353 m 0x30a0
 347 301 305 258 252 258 c 0
 200 258 158 301 158 353 c 0
 158 406 200 448 252 448 c 0
 305 448 347 406 347 353 c 0x30a0
510 962 m 0x1460
 510 909 468 867 415 867 c 0
 363 867 320 909 320 962 c 0
 320 1014 363 1056 415 1056 c 0
 468 1056 510 1014 510 962 c 0x1460
347 799 m 0x18a0
 347 746 305 704 252 704 c 0
 200 704 158 746 158 799 c 0
 158 851 200 894 252 894 c 0
 305 894 347 851 347 799 c 0x18a0
510 190 m 0x5060
 510 138 468 96 415 96 c 0
 363 96 320 138 320 190 c 0
 320 243 363 285 415 285 c 0
 468 285 510 243 510 190 c 0x5060
1118 353 m 0x3028
 1118 301 1076 258 1024 258 c 0
 971 258 929 301 929 353 c 0
 929 406 971 448 1024 448 c 0
 1076 448 1118 406 1118 353 c 0x3028
956 962 m 0x1430
 956 909 913 867 861 867 c 0
 808 867 766 909 766 962 c 0
 766 1014 808 1056 861 1056 c 0
 913 1056 956 1014 956 962 c 0x1430
733 130 m 0
 733 78 691 36 638 36 c 0
 585 36 543 78 543 130 c 0
 543 183 585 225 638 225 c 0x9020
 691 225 733 183 733 130 c 0
1178 576 m 0x1024
 1178 523 1136 481 1084 481 c 0
 1031 481 989 523 989 576 c 0
 989 629 1031 671 1084 671 c 0
 1136 671 1178 629 1178 576 c 0x1024
733 1022 m 0
 733 969 691 927 638 927 c 0
 585 927 543 969 543 1022 c 0
 543 1074 584 1118 638 1118 c 0x1220
 692 1118 733 1074 733 1022 c 0
287 576 m 0x1120
 287 523 245 481 192 481 c 0
 140 481 98 523 98 576 c 0
 98 629 140 671 192 671 c 0
 245 671 287 629 287 576 c 0x1120
EndSplineSet
EndChar

StartChar: ayin.alt
Encoding: 64288 64288 194
Width: 1268
VWidth: 2273
Flags: W
VStem: 187 123<1050.75 1160.57> 256 169<600.427 806>
AnchorPoint: "D" 670 120 basechar 0
AnchorPoint: "VR" 502 0 basechar 0
AnchorPoint: "Holam" 11 0 basechar 0
AnchorPoint: "N" 522 0 basechar 0
AnchorPoint: "W" 452 0 basechar 0
AnchorPoint: "H" 502 0 basechar 0
LayerCount: 2
Fore
SplineSet
417 1050 m 1x80
 448 1050 526 1050 526 985 c 0
 526 972 522 958 520 952 c 2
 488 825 l 1
 425 810 l 1
 425 575 583 394 698 359 c 1
 844 458 873 623 917 803 c 1
 916 803 914 804 911 804 c 2
 859 814 l 2
 838 818 802 822 802 853 c 1
 804 866 803 867 807 875 c 1
 843 1001 l 1
 862 1039 869 1050 916 1050 c 2
 1053 1050 l 1
 1104 1050 1164 1049 1164 986 c 0
 1164 976 1164 966 1160 954 c 2
 1131 826 l 1
 1076 807 l 1
 988 341 985 114 216 -36 c 1
 166 -47 135 -54 115 -54 c 0
 77 -54 68 -28 68 -11 c 0
 68 3 72 19 90 61 c 1
 113 123 l 1
 150 204 167 210 270 227 c 1
 482 257 l 1
 342 374 256 598 256 806 c 1x40
 184 821 l 2
 177 823 124 832 124 875 c 0
 124 880 125 885 127 892 c 2
 187 1099 l 1x80
 206 1150 232 1167 256 1167 c 0x40
 283 1167 307 1146 310 1129 c 0
 316 1087 316 1066 325 1050 c 1
 417 1050 l 1x80
EndSplineSet
EndChar

StartChar: alef.wide
Encoding: 64289 64289 195
Width: 2176
VWidth: 1761
Flags: W
HStem: 0 21G<117.5 401.5 1938.5 1953.5> 802 255<1885.48 1998.88>
VStem: 234 230<273.079 598.728>
AnchorPoint: "R" 1068 0 basechar 0
AnchorPoint: "D" 1068 -450 basechar 0
AnchorPoint: "Holam" 148 0 basechar 0
AnchorPoint: "N" 1071.53 -6 basechar 0
AnchorPoint: "W" 1067.53 -6 basechar 0
AnchorPoint: "H" 1067.53 -6 basechar 0
LayerCount: 2
Fore
SplineSet
529 175 m 1
 485 59 l 2
 477 39 470 23 452 11 c 0
 428 -4 407 0 396 0 c 1
 123 0 l 1
 112 0 104 -1 90 3 c 0
 66 11 60 27 60 43 c 0
 60 59 67 74 67 74 c 1
 97 155 l 2
 103 171 106 185 121 199 c 0
 140 217 157 218 173 223 c 2
 275 252 l 1
 261 304 234 363 234 452 c 0
 234 602 318 690 343 722 c 1
 339 726 336 728 332 731 c 2
 245 813 l 1
 236 823 228 833 225 846 c 0
 218 873 231 885 234 895 c 2
 296 1054 l 2
 301 1067 301 1069 307 1080 c 0
 317 1096 330 1102 343 1102 c 0
 368 1102 394 1080 400 1077 c 1
 405 1071 l 1
 717 708 890 631 1300 472 c 1
 1380 444 1419 439 1442 439 c 1
 1473 439 1492 446 1510 459 c 1
 1556 495 1711 729 1721 790 c 1
 1719 791 1690 809 1690 836 c 0
 1690 842 1691 848 1694 854 c 2
 1759 1002 l 2
 1767 1019 1772 1035 1792 1047 c 0
 1815 1061 1832 1057 1842 1057 c 2
 2002 1057 l 2
 2028 1057 2049 1050 2060 1037 c 0
 2081 1012 2072 986 2068 974 c 2
 2032 859 l 2
 2026 840 2018 823 2000 812 c 0
 1976 797 1958 802 1948 802 c 0
 1903 802 1885 770 1885 752 c 0
 1885 608 1751 407 1720 344 c 1
 1730 338 1742 333 1749 330 c 0
 1886 281 1890 284 2010 245 c 0
 2032 238 2052 220 2055 198 c 0
 2058 171 2046 157 2043 150 c 2
 1989 24 l 2
 1977 -4 1961 -12 1946 -12 c 0
 1931 -12 1918 -2 1912 0 c 1
 1479 113 778 331 486 600 c 1
 473 573 464 537 464 506 c 0
 464 500 464 494 464 488 c 0
 464 274 533 275 533 199 c 0
 533 185 530 179 529 175 c 1
EndSplineSet
EndChar

StartChar: daled.wide
Encoding: 64290 64290 196
Width: 1965
VWidth: 2273
Flags: W
HStem: -19 21G<1561.5 1584.5> 807 243<283.047 1539.97>
VStem: 165 113<1059.17 1158.49> 1540 183<323.797 804.689> 1545 230<91.1224 532.025>
AnchorPoint: "R" 900 0 basechar 0
AnchorPoint: "D" 900 0 basechar 0
AnchorPoint: "Holam" 27 0 basechar 0
AnchorPoint: "H" 1500 1 basechar 0
AnchorPoint: "W" 1620 -1 basechar 0
AnchorPoint: "N" 1620 -1 basechar 0
LayerCount: 2
Fore
SplineSet
1540 759 m 0xf0
 1540 795 1530 807 1468 807 c 2
 162 807 l 2
 133 807 97 823 97 859 c 0
 97 864 98 869 100 876 c 2
 165 1111 l 1
 186 1157 222 1166 240 1166 c 0
 263 1166 278 1153 278 1133 c 0
 278 1106 289 1066 300 1049 c 1
 1793 1050 l 1
 1821 1050 l 1
 1844 1049 1873 1054 1872 1020 c 0
 1872 1016 1871 1009 1868 998 c 2
 1842 911 l 1
 1799 784 1755 874 1726 749 c 0
 1722 730 1723 703 1723 686 c 0xf0
 1723 658 1726 632 1726 608 c 0
 1726 465 1775 371 1775 219 c 0
 1775 111 1666 6 1652 0 c 0
 1648 -2 1646 -3 1631 -7 c 2
 1600 -16 l 2
 1597 -17 1588 -19 1581 -19 c 0
 1542 -19 1545 21 1545 27 c 0xe8
 1545 229 1540 290 1540 759 c 0xf0
EndSplineSet
EndChar

StartChar: he.wide
Encoding: 64291 64291 197
Width: 2191
VWidth: 2273
Flags: W
HStem: -18 21G<169 193 1826 1865> 804 249<318.38 1804.99>
VStem: 123 243<42 272> 201 113<1059.34 1158.49> 1805 181<233.095 801.979> 1810 220<87.8641 743.264>
AnchorPoint: "R" 1077 0 basechar 0
AnchorPoint: "D" 1026 -6 basechar 0
AnchorPoint: "Holam" 60 0 basechar 0
AnchorPoint: "H" 1100 -5 basechar 0
AnchorPoint: "W" 1023 -5 basechar 0
AnchorPoint: "N" 1023 -5 basechar 0
LayerCount: 2
Fore
SplineSet
174 -18 m 1xe0
 164 -18 123 -16 123 42 c 0
 123 54 125 66 126 72 c 0
 210 529 110 657 291 701 c 0
 295 702 299 702 302 702 c 0
 323 702 341 687 341 645 c 2
 341 547 l 2
 341 486 366 376 366 272 c 0
 366 43 212 -18 174 -18 c 1xe0
1805 765 m 0xc8
 1805 801 1792 804 1736 804 c 2
 194 800 l 2
 158 800 136 835 136 868 c 0
 136 873 136 878 138 884 c 2
 201 1111 l 1
 222 1157 258 1166 276 1166 c 0
 299 1166 314 1153 314 1133 c 0
 314 1106 325 1066 336 1049 c 1
 2031 1053 l 1
 2033 1053 l 0
 2045 1053 2087 1051 2087 1008 c 0
 2087 1004 2087 999 2085 989 c 2
 2067 902 l 1
 2038 789 2015 877 1993 761 c 0
 1987 731 1986 704 1986 678 c 0
 1986 663 1986 648 1986 633 c 0xd8
 1986 489 2030 378 2030 226 c 0
 2030 116 1930 10 1917 4 c 0
 1911 1 1908 -1 1896 -5 c 2
 1865 -14 l 2
 1860 -15 1852 -14 1845 -14 c 0
 1807 -14 1810 23 1810 29 c 0xc4
 1810 231 1805 295 1805 765 c 0xc8
EndSplineSet
EndChar

StartChar: khaf.wide
Encoding: 64292 64292 198
Width: 2019
VWidth: 2273
Flags: W
HStem: 0 255<158.977 1752.48> 812 359<236.99 371.977> 812 245<374.784 1636.79>
VStem: 1759 212<262.392 676.86>
AnchorPoint: "R" 951 0 basechar 0
AnchorPoint: "D" 950 0 basechar 0
AnchorPoint: "Holam" 82.7822 0 basechar 0
AnchorPoint: "N" 954.127 0 basechar 0
AnchorPoint: "W" 950 0 basechar 0
AnchorPoint: "H" 970 0 basechar 0
LayerCount: 2
Fore
SplineSet
1971 279 m 1xb0
 1971 274 l 2
 1971 151 1850 0 1730 0 c 2
 144 0 l 2
 131 0 119 1 107 5 c 0
 80 15 73 37 73 57 c 0
 73 68 75 79 78 86 c 2
 126 200 l 2
 129 208 139 233 158 245 c 0
 179 259 190 255 204 255 c 2
 1669 255 l 2
 1758 255 1759 272 1759 341 c 2
 1759 433 l 2
 1759 620 1741 812 1451 812 c 2xb0
 239 812 l 2
 196 812 160 840 160 878 c 0
 160 884 161 891 163 898 c 1
 227 1109 l 1
 243 1154 286 1171 316 1171 c 0xd0
 341 1171 372 1152 372 1125 c 0
 372 1105 381 1072 389 1057 c 1
 1629 1057 l 2
 1950 1057 1930 588 1971 279 c 1xb0
EndSplineSet
EndChar

StartChar: lamed.wide
Encoding: 64293 64293 199
Width: 2083
VWidth: 2273
Flags: W
HStem: -4 21G<1201.5 1217.5> 810 252<325.367 1724.26>
VStem: 106 201<1084.55 1320.11> 1725 246<672.042 901.5>
AnchorPoint: "D" 900 0 basechar 0
AnchorPoint: "J1" -11.0742 0 basechar 0
AnchorPoint: "Holam" -42.0742 100 basechar 0
AnchorPoint: "N" 1200 4 basechar 0
AnchorPoint: "W" 1226.93 4 basechar 0
AnchorPoint: "H" 1226.93 4 basechar 0
LayerCount: 2
Fore
SplineSet
1173 112 m 1
 1240 244 l 1
 1254 281 1280 309 1328 331 c 0
 1601 460 1725 651 1725 751 c 0
 1725 800 1705 810 1649 810 c 2
 229 810 l 2
 185 810 151 816 128 841 c 0
 107 864 106 899 106 922 c 0
 106 926 106 929 106 932 c 0
 106 1163 153 1331 201 1554 c 0
 206 1578 207 1602 230 1621 c 0
 248 1636 266 1638 282 1638 c 0
 288 1638 293 1638 298 1638 c 2
 431 1638 l 2
 466 1638 490 1630 503 1607 c 0
 509 1596 512 1586 512 1578 c 0
 512 1561 503 1550 501 1543 c 2
 466 1427 l 2
 460 1407 451 1388 434 1376 c 0
 411 1359 388 1361 373 1361 c 0
 352 1361 343 1360 339 1360 c 1
 315 1318 307 1257 307 1195 c 0
 307 1160 315 1116 325 1083 c 1
 333 1071 330 1058 408 1058 c 0
 702 1058 1275 1062 1298 1062 c 2
 1784 1062 l 1
 1913 1041 1971 953 1971 850 c 0
 1971 592 1634 173 1267 19 c 0
 1246 10 1230 -4 1205 -4 c 0
 1198 -4 1190 -3 1182 0 c 0
 1154 9 1145 25 1145 43 c 0
 1145 72 1169 105 1173 112 c 1
EndSplineSet
EndChar

StartChar: finalmem.wide
Encoding: 64294 64294 200
Width: 2171
VWidth: 2273
Flags: W
HStem: 0 248<358.436 1846.81> 811 241<364.002 1776.98>
VStem: 176 113<1064.72 1162.04> 184 167<248 775.788> 1847 183<246.699 741.133>
AnchorPoint: "D" 1050 0 basechar 0
AnchorPoint: "Holam" 36.6738 0 basechar 0
AnchorPoint: "N" 1050 0 basechar 0
AnchorPoint: "W" 1050 0 basechar 0
AnchorPoint: "H" 1050 0 basechar 0
LayerCount: 2
Fore
SplineSet
269 0 m 1xe8
 217 0 191 9 191 70 c 0
 191 146 184 223 184 300 c 0xd8
 184 549 202 691 233 790 c 1
 163 811 l 2
 146 816 105 825 105 863 c 0
 105 868 110 888 112 894 c 2
 176 1114 l 1
 196 1159 230 1169 251 1169 c 0
 274 1169 289 1156 289 1136 c 0
 289 1108 300 1069 311 1052 c 1
 1740 1050 l 2
 2015 1050 2030 886 2030 734 c 2
 2030 154 l 2
 2030 120 2033 92 2033 70 c 0
 2033 17 2015 0 1895 0 c 2
 269 0 l 1xe8
1779 246 m 2
 1847 246 1847 256 1847 314 c 2
 1847 337 l 2
 1847 463 1843 603 1840 621 c 0
 1816 789 1767 811 1517 811 c 1
 391 811 l 1
 367 811 364 808 364 777 c 0
 364 675 351 623 351 525 c 0
 351 250 359 248 396 248 c 0
 398 248 l 2
 1779 246 l 2
EndSplineSet
EndChar

StartChar: resh.wide
Encoding: 64295 64295 201
Width: 2043
VWidth: 2273
Flags: W
HStem: 811 242<276.705 1701.17>
VStem: 160 113<1055.1 1164.22> 1741 206<86.0625 769.984> 1741 177<148.402 769.984>
AnchorPoint: "D" 1000 0 basechar 0
AnchorPoint: "Holam" 31 0 basechar 0
AnchorPoint: "H" 1700 -3 basechar 0
AnchorPoint: "W" 1800 0 basechar 0
AnchorPoint: "N" 1820 -3 basechar 0
LayerCount: 2
Fore
SplineSet
1792 -33 m 0xe0
 1761 -33 1754 -10 1754 37 c 0
 1754 122 1741 514 1741 595 c 2
 1741 620 l 2xe0
 1741 769 1733 811 1419 811 c 2
 166 811 l 2
 130 811 101 832 101 865 c 0
 101 871 103 878 104 881 c 2
 160 1115 l 1
 178 1157 208 1170 230 1170 c 0
 250 1170 273 1156 273 1129 c 0
 273 1101 284 1068 294 1053 c 1
 1623 1053 l 2
 1932 1053 1897 829 1918 665 c 1xd0
 1918 543 1947 383 1947 337 c 2
 1947 241 l 2
 1947 200 1942 173 1917 118 c 2
 1883 45 l 2
 1859 -5 1820 -33 1792 -33 c 0xe0
EndSplineSet
EndChar

StartChar: tav.wide
Encoding: 64296 64296 202
Width: 2164
VWidth: 2273
Flags: W
HStem: 0 206<104.453 282.012> 818 241<472.994 1825.92>
VStem: 60 391<26.416 162.026> 279 165<500.293 778.533> 284 196<213.258 429.501> 310 116<1063.72 1163.25> 1881 195<67.5116 402.066>
AnchorPoint: "R" 1134 0 basechar 0
AnchorPoint: "D" 1130 0 basechar 0
AnchorPoint: "Holam" 171 0 basechar 0
AnchorPoint: "H" 1130 -1 basechar 0
AnchorPoint: "W" 1130 -1 basechar 0
AnchorPoint: "N" 1130 -1 basechar 0
LayerCount: 2
Fore
SplineSet
1929 -31 m 0xc6
 1885 -31 1881 48 1881 100 c 0
 1881 188 1865 501 1865 607 c 2
 1865 613 l 2
 1865 780 1863 818 1548 818 c 2
 524 811 l 2
 476 811 444 728 444 666 c 1xd2
 478 273 l 1
 478 257 480 240 480 224 c 0xca
 480 165 464 134 451 101 c 1
 407 4 388 0 293 0 c 2
 134 0 l 2
 113 0 60 0 60 46 c 0xe2
 60 63 71 87 79 113 c 1
 106 182 125 191 208 206 c 1
 276 217 284 210 284 295 c 2
 284 321 l 1xca
 279 645 l 1xd2
 279 718 306 752 333 794 c 1
 295 811 l 2
 269 822 239 832 239 863 c 0
 239 867 240 871 243 879 c 2
 310 1114 l 1
 331 1162 364 1169 380 1169 c 0
 403 1169 426 1155 426 1128 c 0
 426 1100 438 1067 449 1052 c 1
 1752 1059 l 1
 2042 1059 2032 764 2042 671 c 1
 2075 206 l 2
 2075 204 2076 200 2076 191 c 0
 2076 122 1989 -31 1929 -31 c 0xc6
EndSplineSet
EndChar

StartChar: hebrewplussign
Encoding: 64297 64297 203
Width: 1052
VWidth: 2273
Flags: W
HStem: 418 229<94 398 667 960> 920 20G<398 667>
VStem: 398 269<647 940>
LayerCount: 2
Fore
SplineSet
94 418 m 1
 94 647 l 1
 398 647 l 1
 398 940 l 1
 667 940 l 1
 667 647 l 1
 960 647 l 1
 960 418 l 1
 94 418 l 1
EndSplineSet
EndChar

StartChar: tsadidagesh
Encoding: 64326 64326 232
Width: 1229
Flags: W
HStem: 0 248<132.52 755.726> 799 255<954.171 1071.56>
VStem: 141 456<881.442 1048.51> 208 113<1078.17 1176.62>
AnchorPoint: "N" 542 0 basechar 0
AnchorPoint: "W" 542 0 basechar 0
AnchorPoint: "H" 542 0 basechar 0
AnchorPoint: "Holam" 133 0 basechar 0
AnchorPoint: "VR" 542 0 basechar 0
LayerCount: 2
Fore
SplineSet
134 0 m 2,105,-1
EndSplineSet
Refer: 137 1468 N 1 0 0 1 316 -81 2
Refer: 168 1510 N 1 0 0 1 -0.000388741 0 2
LCarets2: 1 0 
Ligature2: "'ccmp' Dagesh" tsadi dagesh
EndChar

StartChar: aleflamed
Encoding: 64335 64335 241
Width: 1516
VWidth: 2273
Flags: W
HStem: 805 252<292.734 476.065> 820 232<1234.45 1368.38> 1392 248<293.159 430.999>
VStem: 105 171<907 1334.73> 1067 331<832 1008> 1099 129<669.061 813.395>
AnchorPoint: "VR" 859 0 basechar 0
AnchorPoint: "Holam" -175 100 basechar 0
AnchorPoint: "H" 859 0 basechar 0
AnchorPoint: "W" 859 0 basechar 0
AnchorPoint: "N" 859 0 basechar 0
LayerCount: 2
Fore
SplineSet
1343 1052 m 1x78
 1348 1051 1398 1053 1398 1008 c 0
 1398 1003 1398 997 1395 987 c 1
 1377 883 l 1
 1362 842 1336 820 1317 820 c 2
 1304 820 l 2x78
 1252 820 1228 775 1228 748 c 0
 1228 597 1153 503 1144 464 c 0
 1143 460 1144 456 1164 435 c 0
 1318 277 1417 266 1417 215 c 0
 1417 205 1414 194 1407 181 c 2
 1333 37 l 2
 1327 27 1319 10 1298 10 c 1
 1286 14 1286 8 1265 28 c 1
 991 268 716 487 480 756 c 1
 452 793 426 805 303 805 c 2
 232 805 l 2
 137 805 105 877 105 937 c 0
 105 1225 212 1612 212 1612 c 1
 226 1638 254 1640 274 1640 c 0
 322 1640 370 1640 418 1640 c 0
 435 1640 478 1638 478 1599 c 0
 478 1589 473 1576 470 1564 c 2
 435 1448 l 2
 419 1397 390 1392 357 1392 c 0
 347 1392 336 1392 326 1392 c 0
 313 1392 315 1392 310 1385 c 0
 293 1356 276 1308 276 1212 c 0
 276 1174 284 1127 296 1090 c 0
 306 1060 318 1057 338 1057 c 2
 429 1057 l 2
 525 1057 553 1051 603 1009 c 1
 968 615 l 2
 973 610 986 596 994 590 c 1
 1026 611 1099 722 1099 790 c 0xb4
 1099 797 1067 806 1067 832 c 0
 1067 833 1069 844 1070 845 c 2
 1118 1005 l 2
 1130 1047 1145 1052 1183 1052 c 2
 1343 1052 l 1x78
EndSplineSet
LCarets2: 2 0 0 
Ligature2: "'ccmp' Alef Lamed" alef uni0000 lamed
Ligature2: "'ccmp' Alef Lamed" alef zerojoin lamed
EndChar

StartChar: nunhapukha
Encoding: 1478 1478 243
Width: 720
VWidth: 2273
Flags: W
HStem: 0 248<367 623.454> 811 244<406.349 544.439>
VStem: 107 482<854.671 1017.99> 172 493<36.8672 246.006> 179 113<1057.5 1165.87> 201 166<250.936 785.601>
LayerCount: 2
Fore
SplineSet
107 861 m 1xe0
 107 882 157 1030 179 1116 c 1
 197 1156 226 1172 249 1172 c 0
 266 1172 292 1159 292 1130 c 0xc8
 292 1099 304 1069 314 1055 c 1
 532 1055 l 2
 535 1055 l 0
 547 1055 589 1053 589 1012 c 0xe0
 589 1008 588 1001 585 991 c 2
 546 858 l 1
 527 815 516 811 477 811 c 2
 426 811 l 1
 395 783 367 582 367 312 c 2
 367 288 l 2
 367 283 l 0xc4
 367 250 369 248 452 248 c 2
 608 248 l 2
 609 248 610 248 611 248 c 0
 623 248 665 246 665 203 c 0
 665 195 663 187 661 180 c 2
 626 49 l 1
 607 4 595 0 556 0 c 2
 286 0 l 2
 220 0 172 4 172 108 c 0xd0
 172 294 201 192 201 755 c 2
 201 797 l 2xc4
 200 800 200 811 179 811 c 2xc8
 172 811 l 2xd0
 143 811 107 826 107 861 c 1xe0
EndSplineSet
EndChar

StartChar: qamatsqatan
Encoding: 1479 1479 244
Width: 0
VWidth: 1761
GlyphClass: 4
Flags: W
HStem: -245 139<-160.266 -57 61 160.081>
VStem: -178 356<-243.359 -107.231> -66 135<-505 -245>
AnchorPoint: "M2V" -281.204 -90 basemark 0
AnchorPoint: "W" 0.794922 -1 mark 0
LayerCount: 2
Fore
SplineSet
61 -245 m 1xc0
 69 -480 l 2
 69 -494 60 -505 44 -505 c 2
 -42 -505 l 2
 -56 -505 -66 -495 -66 -480 c 2xa0
 -57 -245 l 1
 -153 -245 l 2
 -168 -245 -178 -236 -178 -223 c 0
 -178 -221 -180 -218 -178 -213 c 2
 -155 -132 l 2
 -153 -127 -149 -115 -137 -109 c 0
 -134 -107 -129 -106 -124 -106 c 2
 151 -106 l 2
 167 -106 178 -116 178 -131 c 0
 178 -134 178 -136 176 -140 c 2
 155 -221 l 1
 150 -236 138 -245 122 -245 c 2
 61 -245 l 1xc0
EndSplineSet
LCarets2: 1 0 
MultipleSubs2: "meteg-tenua-stage2" qamatsqatan meteg
Ligature2: "meteg-tenua-stage1" meteg qamatsqatan
EndChar

StartChar: uni0000
Encoding: 0 0 247
Width: 1324
Flags: W
HStem: 0 198<290 1035> 263 203<508.228 692.831> 1054 127<501.99 742.243> 1230 161<290 1035>
VStem: 125 165<198 1230> 387 92<933.184 995.565> 489 223<282.968 445.05> 555 116<525.75 618.754> 755 184<796.176 1041.44> 1035 164<198 1230>
LayerCount: 2
Fore
SplineSet
1035 198 m 0xfcc0
 1035 1230 l 0
 290 1230 l 0
 290 198 l 0
 1035 198 l 0xfcc0
387 1148 m 0
 454 1166 525 1181 616 1181 c 0
 895 1181 939 1039 939 943 c 0
 939 714 742 678 688 668 c 0
 671 537 l 0
 651 529 631 525 611 525 c 0
 593 525 574 529 555 537 c 0xfdc0
 518 748 l 0
 664 776 l 0
 712 784 755 811 755 934 c 0
 755 1041 724 1054 615 1054 c 0
 571 1054 533 1045 503 1031 c 0
 479 943 l 0
 462 937 445 933 428 933 c 0
 414 933 401 936 387 943 c 0
 387 1148 l 0
601 466 m 0
 667 466 712 417 712 364 c 0
 712 313 668 263 601 263 c 0
 534 263 489 313 489 364 c 0xfec0
 489 418 534 466 601 466 c 0
125 0 m 0
 125 1391 l 0
 1199 1391 l 0
 1199 0 l 0
 125 0 l 0
EndSplineSet
EndChar

StartChar: .notdef
Encoding: 65536 -1 249
Width: 1324
Flags: W
HStem: 0 198<290 1035> 263 203<508.228 692.831> 1054 127<501.99 742.243> 1230 161<290 1035>
VStem: 125 165<198 1230> 387 92<933.184 995.565> 489 223<282.968 445.05> 555 116<525.75 618.754> 755 184<796.176 1041.44> 1035 164<198 1230>
LayerCount: 2
Fore
SplineSet
1035 198 m 0xfcc0
 1035 1230 l 0
 290 1230 l 0
 290 198 l 0
 1035 198 l 0xfcc0
387 1148 m 0
 454 1166 525 1181 616 1181 c 0
 895 1181 939 1039 939 943 c 0
 939 714 742 678 688 668 c 0
 671 537 l 0
 651 529 631 525 611 525 c 0
 593 525 574 529 555 537 c 0xfdc0
 518 748 l 0
 664 776 l 0
 712 784 755 811 755 934 c 0
 755 1041 724 1054 615 1054 c 0
 571 1054 533 1045 503 1031 c 0
 479 943 l 0
 462 937 445 933 428 933 c 0
 414 933 401 936 387 943 c 0
 387 1148 l 0
601 466 m 0
 667 466 712 417 712 364 c 0
 712 313 668 263 601 263 c 0
 534 263 489 313 489 364 c 0xfec0
 489 418 534 466 601 466 c 0
125 0 m 0
 125 1391 l 0
 1199 1391 l 0
 1199 0 l 0
 125 0 l 0
EndSplineSet
EndChar

